<?xml version="1.0" encoding="UTF-8" standalone="no"?>
<!-- Created with Inkscape (http://www.inkscape.org/) -->

<svg
   xmlns:dc="http://purl.org/dc/elements/1.1/"
   xmlns:cc="http://creativecommons.org/ns#"
   xmlns:rdf="http://www.w3.org/1999/02/22-rdf-syntax-ns#"
   xmlns:svg="http://www.w3.org/2000/svg"
   xmlns="http://www.w3.org/2000/svg"
   xmlns:sodipodi="http://sodipodi.sourceforge.net/DTD/sodipodi-0.dtd"
   xmlns:inkscape="http://www.inkscape.org/namespaces/inkscape"
   width="64px"
   height="64px"
   id="svg3163"
   version="1.1"
   inkscape:version="0.48.2 r9819"
   sodipodi:docname="desenho-6.svg">
  <defs
     id="defs3165" />
  <sodipodi:namedview
     id="base"
     pagecolor="#ffffff"
     bordercolor="#666666"
     borderopacity="1.0"
     inkscape:pageopacity="0.0"
     inkscape:pageshadow="2"
     inkscape:zoom="5.5"
     inkscape:cx="44.460914"
     inkscape:cy="35.436272"
     inkscape:current-layer="layer1"
     showgrid="true"
     inkscape:document-units="px"
     inkscape:grid-bbox="true"
     inkscape:window-width="1366"
     inkscape:window-height="705"
     inkscape:window-x="-4"
     inkscape:window-y="-4"
     inkscape:window-maximized="1" />
  <metadata
     id="metadata3168">
    <rdf:RDF>
      <cc:Work
         rdf:about="">
        <dc:format>image/svg+xml</dc:format>
        <dc:type
           rdf:resource="http://purl.org/dc/dcmitype/StillImage" />
        <dc:title></dc:title>
      </cc:Work>
    </rdf:RDF>
  </metadata>
  <g
     id="layer1"
     inkscape:label="Layer 1"
     inkscape:groupmode="layer">
    <g
       id="g3093"
       transform="matrix(0.48554543,0,0,0.48554543,7.1856581,-208.00212)">
      <path
         style="fill:#e6e6e6;fill-opacity:1"
         d="m 40.478477,559.93916 c -3.85753,0 -8.10243,-1.08875 -9.43312,-2.41943 l -2.41943,-2.41944 2.18765,-13.48092 2.187655,-13.48093 -4.558057,-2.81703 -4.558056,-2.81704 0.288562,-6.94246 0.288561,-6.94246 3.52845,8.21115 3.528448,8.21116 0.288581,-6.54845 0.288544,-6.54845 -8.211146,-7.43099 -8.211145,-7.43099 0,-27.28161 0,-27.28161 4.926687,-4.92669 4.926687,-4.92669 27.09678,0 27.09678,0 4.926687,4.92669 4.926688,4.92669 0,27.28161 0,27.28161 -8.211146,7.43099 -8.211145,7.43099 0.485751,10.65403 0.485751,10.65402 3.134071,-12.31673 3.134071,-12.31673 0.48575,11.04804 0.485751,11.04803 -4.105572,2.53739 -4.105573,2.53739 0,9.50844 0,9.50845 -12.829915,2.56598 c -7.056453,1.4113 -15.986074,2.56599 -19.8436,2.56599 z m -0.610318,-4.10558 8.650397,0 0.436755,-13.34312 0.43675,-13.34313 4.461366,11.29034 4.461366,11.29034 5.365815,0 5.365811,0 0,-20.52789 0,-20.52788 -7.184752,-0.31235 -7.184752,-0.31236 14.369504,-5.18592 14.369505,-5.18593 0,-30.42553 0,-30.42552 -30.791796,0 -30.791795,0 0,30.42552 0,30.42553 14.369504,5.18593 14.369505,5.18592 -7.184752,0.31236 -7.184753,0.31235 0,16.08652 c 0,8.84759 -1.121416,19.00889 -2.492037,22.58067 l -2.492037,6.49415 8.650396,0 z m 147.197551,4.10558 -22.2226,0 -2.66229,-2.66229 -2.66229,-2.6623 2.43649,-9.70775 2.43649,-9.70775 -5.04716,-6.08146 -5.04715,-6.08146 1.9616,-10.26146 1.9616,-10.26147 -5.58405,-4.63435 -5.58405,-4.63435 0,-27.41522 0,-27.41522 4.92669,-4.92669 4.92669,-4.92669 27.09677,0 27.09678,0 4.92669,4.92669 4.92669,4.92669 0,27.09681 0,27.09681 -4.97394,4.97394 -4.97394,4.97395 1.18232,16.37505 1.18231,16.37506 -4.74573,0 -4.74573,0 2.7052,12.31673 2.70521,12.31673 -22.2226,0 z m -15.81922,-4.10558 8.65039,0 0,-10.50624 0,-10.50624 4.10557,2.53739 4.10558,2.53738 0,7.96886 0,7.96885 7.18475,0.007 7.18475,0.007 -1.39105,-24.64076 -1.39106,-24.64094 -4.7673,-0.1607 c -2.62202,-0.0884 1.31914,-2.80496 8.75812,-6.03683 l 13.52543,-5.87613 -1.20871,-29.88697 -1.20871,-29.88696 -30.7918,0 -30.79179,0 -1.23515,28.64147 -1.23515,28.64147 7.15181,5.22954 7.15181,5.22953 10.50563,0.55911 10.50563,0.55911 -9.23754,1.77922 -9.23754,1.77923 0,17.85377 c 0,9.81957 -1.12141,20.77613 -2.49203,24.34791 l -2.49204,6.49415 8.6504,0 z m 36.11391,-29.76543 c 1.03266,-3.95162 1.03266,-10.4179 0,-14.36952 l -1.87758,-7.18476 0,14.36952 0,14.36952 1.87758,-7.18476 z m -45.14626,-4.18371 c 1.04094,-3.99459 0.97249,-9.53712 -0.15211,-12.31673 l -2.04476,-5.05384 0.15211,12.31673 0.15211,12.31673 1.89262,-7.26289 z m 151.76659,37.24436 -23.9807,1.24243 2.75265,-12.53277 2.75266,-12.53276 -4.74574,0 -4.74573,0 1.18232,-16.37506 1.18231,-16.37505 -4.97393,-4.97395 -4.97394,-4.97394 0,-27.09681 0,-27.09681 4.92668,-4.92669 4.92669,-4.92669 27.09678,0 27.09678,0 4.92669,4.92669 4.92669,4.92669 0,27.41522 0,27.41522 -5.58405,4.63435 -5.58405,4.63435 1.9616,10.26147 1.9616,10.26146 -4.79927,5.78278 -4.79927,5.78277 1.23696,11.64234 1.23697,11.64233 -23.9807,1.24243 z m -9.89027,-3.28774 7.18475,-0.007 0,-7.96885 0,-7.96886 4.10557,-2.53738 4.10557,-2.53739 0,10.50624 0,10.50624 7.52253,0 7.52253,0 -1.90338,-23.60706 -1.90339,-23.60707 -4.14906,-1.56276 -4.14906,-1.56276 13.08174,-5.50047 13.08174,-5.50046 -1.20871,-29.88697 -1.20871,-29.88696 -30.7918,0 -30.79179,0 -1.20871,29.88696 -1.20871,29.88697 13.52543,5.87613 c 7.43898,3.23187 11.38013,5.94845 8.75812,6.03683 l -4.76731,0.1607 -1.39105,24.64094 -1.39106,24.64094 7.18476,-0.007 z m -10.51304,-29.77291 c 1.03267,-3.95162 1.03267,-10.4179 0,-14.36952 l -1.87757,-7.18476 0,14.36952 0,14.36952 1.87757,-7.18476 z m 45.17635,-4.18371 c 1.04094,-3.99459 0.97248,-9.53712 -0.15211,-12.31673 l -2.04477,-5.05384 0.15212,12.31673 0.15211,12.31673 1.89262,-7.26289 z m 118.26927,36.55997 c -6.77419,0.30693 -16.47361,-0.28345 -21.55426,-1.31194 l -9.23754,-1.86998 0,-9.7361 0,-9.73609 -4.5002,-2.78128 -4.5002,-2.78128 1.74779,-11.90846 1.74782,-11.90847 -5.45877,-4.53036 -5.45873,-4.53035 0,-27.41522 0,-27.41522 4.92669,-4.92669 4.92669,-4.92669 27.09678,0 27.09678,0 4.92669,4.92669 4.92668,4.92669 0,27.28161 0,27.28161 -8.21114,7.43099 -8.21115,7.43099 0.28862,6.54845 0.28863,6.54845 3.52845,-8.21116 3.52845,-8.21115 0.28862,6.94246 0.28862,6.94246 -4.37966,2.70679 -4.37966,2.70678 1.30048,14.98422 1.30024,14.98421 -12.31672,0.55804 z m 2.05279,-2.61083 9.08965,0 -2.49204,-6.49415 c -1.37064,-3.57178 -2.49204,-13.73308 -2.49204,-22.58067 l 0,-16.08652 -7.18475,-0.31235 -7.18476,-0.31236 14.36951,-5.18592 14.3695,-5.18593 0,-30.42553 0,-30.42552 -30.79179,0 -30.7918,0 -1.20453,29.68096 -1.20458,29.68096 13.5213,5.90793 13.52125,5.90792 -5.13197,0.3349 -5.13196,0.33494 0,20.52788 0,20.52789 5.71327,0 5.71328,0 2.96828,-11.29034 2.96829,-11.29034 3.06703,8.21116 3.06698,8.21115 -1.92387,5.13197 -1.92391,5.13197 9.08966,0 z m -34.23112,-27.71264 2.07081,-5.13197 -2.07081,-5.13197 -2.07081,-5.13197 0,10.26394 0,10.26394 2.07081,-5.13197 z m 151.89268,31.00786 -23.98069,1.24243 2.75262,-12.53277 2.75267,-12.53276 -4.74572,0 -4.74575,0 1.18232,-16.37506 1.18233,-16.37505 -4.97395,-4.97395 -4.97394,-4.97394 0,-27.09681 0,-27.09681 4.92669,-4.92669 4.92669,-4.92669 27.09677,0 27.09678,0 4.92669,4.92669 4.92669,4.92669 0,27.41522 0,27.41522 -5.58403,4.63435 -5.58407,4.63435 1.9616,10.26147 1.9616,10.26146 -4.79925,5.78278 -4.79929,5.78277 1.23697,11.64234 1.23696,11.64233 -23.98069,1.24243 z m -9.89028,-3.28774 7.18475,-0.007 0,-7.96885 0,-7.96886 4.10557,-2.53738 4.10558,-2.53739 0,10.50624 0,10.50624 7.52252,0 7.52255,0 -1.90342,-23.60706 -1.90339,-23.60707 -4.14905,-1.56276 -4.14905,-1.56276 13.08175,-5.50047 13.08171,-5.50046 -1.20868,-29.88697 -1.20872,-29.88696 -30.7918,0 -30.79179,0 -1.20872,29.88696 -1.20868,29.88697 13.5254,5.87613 c 7.43901,3.23187 11.38015,5.94845 8.75813,6.03683 l -4.76731,0.1607 -1.39105,24.64094 -1.39105,24.64094 7.18475,-0.007 z m -10.51302,-29.77291 c 1.03264,-3.95162 1.03264,-10.4179 0,-14.36952 l -1.8776,-7.18476 0,14.36952 0,14.36952 1.8776,-7.18476 z m 45.17633,-4.18371 c 1.04093,-3.99459 0.97249,-9.53712 -0.15232,-12.31673 l -2.04457,-5.05384 0.15231,12.31673 0.15191,12.31673 1.89263,-7.26289 z m 111.06859,38.05472 -22.2226,0 -2.66226,-2.66229 -2.6623,-2.6623 2.43649,-9.70775 2.43646,-9.70775 -5.04715,-6.08146 -5.04714,-6.08146 1.9616,-10.26146 1.9616,-10.26147 -5.58407,-4.63435 -5.58403,-4.63435 0,-27.41522 0,-27.41522 4.92668,-4.92669 4.92669,-4.92669 27.09678,0 27.09678,0 4.92669,4.92669 4.92669,4.92669 0,27.09681 0,27.09681 -4.97395,4.97394 -4.97394,4.97395 1.18232,16.37505 1.18233,16.37506 -4.74576,0 -4.74571,0 2.7052,12.31673 2.7052,12.31673 -22.2226,0 z m -14.69134,-4.10558 7.52252,0 0,-10.50624 0,-10.50624 4.10557,2.53739 4.10557,2.53738 0,7.96886 0,7.96885 7.18476,0.007 7.18475,0.007 -1.39105,-24.64094 -1.39105,-24.64076 -4.76731,-0.16069 c -2.62202,-0.0884 1.31912,-2.80496 8.75813,-6.03683 l 13.5254,-5.87614 -1.20868,-29.88696 -1.20872,-29.88697 -30.7918,0 -30.79179,0 -1.20873,29.88696 -1.20868,29.88697 13.08171,5.50046 13.08175,5.50047 -4.14905,1.56276 -4.14905,1.56276 -1.90338,23.60707 -1.90343,23.60706 7.52256,0 z m 34.98605,-29.76543 c 1.03263,-3.95162 1.03263,-10.4179 0,-14.36952 l -1.8776,-7.18476 0,14.36952 0,14.36952 1.8776,-7.18476 z m -45.14627,-4.18371 c 1.04092,-3.99459 0.97248,-9.53712 -0.15232,-12.31673 l -2.04458,-5.05384 0.15232,12.31673 0.15191,12.31673 1.89263,-7.26289 z"
         id="path3099"
         inkscape:connector-curvature="0" />
      <path
         style="fill:#8c8c8c;fill-opacity:1"
         d="m 40.478477,559.93916 c -3.85753,0 -8.10243,-1.08875 -9.43312,-2.41943 l -2.41943,-2.41944 2.18765,-13.48092 2.187655,-13.48093 -4.558057,-2.81703 -4.558056,-2.81704 0.288562,-6.94246 0.288561,-6.94246 3.52845,8.21115 3.528448,8.21116 0.288581,-6.54845 0.288544,-6.54845 -8.211146,-7.43099 -8.211145,-7.43099 0,-27.28161 0,-27.28161 4.926687,-4.92669 4.926687,-4.92669 27.09678,0 27.09678,0 4.926687,4.92669 4.926688,4.92669 0,27.28161 0,27.28161 -8.211146,7.43099 -8.211145,7.43099 0.485751,10.65403 0.485751,10.65402 3.134071,-12.31673 3.134071,-12.31673 0.48575,11.04804 0.485751,11.04803 -4.105572,2.53739 -4.105573,2.53739 0,9.50844 0,9.50845 -12.829915,2.56598 c -7.056453,1.4113 -15.986074,2.56599 -19.8436,2.56599 z m -0.610318,-4.10558 8.650397,0 0.436755,-13.34312 0.43675,-13.34313 4.461366,11.29034 4.461366,11.29034 5.365815,0 5.365811,0 0,-20.52789 0,-20.52788 -7.184752,-0.31235 -7.184752,-0.31236 14.369504,-5.18592 14.369505,-5.18593 0,-30.42553 0,-30.42552 -30.791796,0 -30.791795,0 0,30.42552 0,30.42553 14.369504,5.18593 14.369505,5.18592 -7.184752,0.31236 -7.184753,0.31235 0,16.08652 c 0,8.84759 -1.121416,19.00889 -2.492037,22.58067 l -2.492037,6.49415 8.650396,0 z m 147.197551,4.10558 -22.2226,0 -2.66229,-2.66229 -2.66229,-2.6623 2.43649,-9.70775 2.43649,-9.70775 -5.04716,-6.08146 -5.04715,-6.08146 1.9616,-10.26146 1.9616,-10.26147 -5.58405,-4.63435 -5.58405,-4.63435 0,-27.41522 0,-27.41522 4.92669,-4.92669 4.92669,-4.92669 27.09677,0 27.09678,0 4.92669,4.92669 4.92669,4.92669 0,27.09681 0,27.09681 -4.97394,4.97394 -4.97394,4.97395 1.18232,16.37505 1.18231,16.37506 -4.74573,0 -4.74573,0 2.7052,12.31673 2.70521,12.31673 -22.2226,0 z m -15.81922,-4.10558 8.65039,0 0,-10.50624 0,-10.50624 4.10557,2.53739 4.10558,2.53738 0,7.96886 0,7.96885 7.18475,0.007 7.18475,0.007 -1.39105,-24.64076 -1.39106,-24.64094 -4.7673,-0.1607 c -2.62202,-0.0884 1.31914,-2.80496 8.75812,-6.03683 l 13.52543,-5.87613 -1.20871,-29.88697 -1.20871,-29.88696 -30.7918,0 -30.79179,0 -1.23515,28.64147 -1.23515,28.64147 7.15181,5.22954 7.15181,5.22953 10.50563,0.55911 10.50563,0.55911 -9.23754,1.77922 -9.23754,1.77923 0,17.85377 c 0,9.81957 -1.12141,20.77613 -2.49203,24.34791 l -2.49204,6.49415 8.6504,0 z m 36.11391,-29.76543 c 1.03266,-3.95162 1.03266,-10.4179 0,-14.36952 l -1.87758,-7.18476 0,14.36952 0,14.36952 1.87758,-7.18476 z m -45.14626,-4.18371 c 1.04094,-3.99459 0.97249,-9.53712 -0.15211,-12.31673 l -2.04476,-5.05384 0.15211,12.31673 0.15211,12.31673 1.89262,-7.26289 z m 151.76659,37.24436 -23.9807,1.24243 2.75265,-12.53277 2.75266,-12.53276 -4.74574,0 -4.74573,0 1.18232,-16.37506 1.18231,-16.37505 -4.97393,-4.97395 -4.97394,-4.97394 0,-27.09681 0,-27.09681 4.92668,-4.92669 4.92669,-4.92669 27.09678,0 27.09678,0 4.92669,4.92669 4.92669,4.92669 0,27.41522 0,27.41522 -5.58405,4.63435 -5.58405,4.63435 1.9616,10.26147 1.9616,10.26146 -4.79927,5.78278 -4.79927,5.78277 1.23696,11.64234 1.23697,11.64233 -23.9807,1.24243 z m -9.89027,-3.28774 7.18475,-0.007 0,-7.96885 0,-7.96886 4.10557,-2.53738 4.10557,-2.53739 0,10.50624 0,10.50624 7.52253,0 7.52253,0 -1.90338,-23.60706 -1.90339,-23.60707 -4.14906,-1.56276 -4.14906,-1.56276 13.08174,-5.50047 13.08174,-5.50046 -1.20871,-29.88697 -1.20871,-29.88696 -30.7918,0 -30.79179,0 -1.20871,29.88696 -1.20871,29.88697 13.52543,5.87613 c 7.43898,3.23187 11.38013,5.94845 8.75812,6.03683 l -4.76731,0.1607 -1.39105,24.64094 -1.39106,24.64094 7.18476,-0.007 z m -10.51304,-29.77291 c 1.03267,-3.95162 1.03267,-10.4179 0,-14.36952 l -1.87757,-7.18476 0,14.36952 0,14.36952 1.87757,-7.18476 z m 45.17635,-4.18371 c 1.04094,-3.99459 0.97248,-9.53712 -0.15211,-12.31673 l -2.04477,-5.05384 0.15212,12.31673 0.15211,12.31673 1.89262,-7.26289 z m 118.26927,36.55997 c -6.77419,0.30693 -16.47361,-0.28345 -21.55426,-1.31194 l -9.23754,-1.86998 0,-9.7361 0,-9.73609 -4.5002,-2.78128 -4.5002,-2.78128 1.74779,-11.90846 1.74782,-11.90847 -5.45877,-4.53036 -5.45873,-4.53035 0,-27.41522 0,-27.41522 4.92669,-4.92669 4.92669,-4.92669 27.09678,0 27.09678,0 4.92669,4.92669 4.92668,4.92669 0,27.28161 0,27.28161 -8.21114,7.43099 -8.21115,7.43099 0.28862,6.54845 0.28863,6.54845 3.52845,-8.21116 3.52845,-8.21115 0.28862,6.94246 0.28862,6.94246 -4.37966,2.70679 -4.37966,2.70678 1.30048,14.98422 1.30024,14.98421 -12.31672,0.55804 z m 2.05279,-2.61083 9.08965,0 -2.49204,-6.49415 c -1.37064,-3.57178 -2.49204,-13.73308 -2.49204,-22.58067 l 0,-16.08652 -7.18475,-0.31235 -7.18476,-0.31236 14.36951,-5.18592 14.3695,-5.18593 0,-30.42553 0,-30.42552 -30.79179,0 -30.7918,0 -1.20453,29.68096 -1.20458,29.68096 13.5213,5.90793 13.52125,5.90792 -5.13197,0.3349 -5.13196,0.33494 0,20.52788 0,20.52789 5.71327,0 5.71328,0 2.96828,-11.29034 2.96829,-11.29034 3.06703,8.21116 3.06698,8.21115 -1.92387,5.13197 -1.92391,5.13197 9.08966,0 z m -34.23112,-27.71264 2.07081,-5.13197 -2.07081,-5.13197 -2.07081,-5.13197 0,10.26394 0,10.26394 2.07081,-5.13197 z m 151.89268,31.00786 -23.98069,1.24243 2.75262,-12.53277 2.75267,-12.53276 -4.74572,0 -4.74575,0 1.18232,-16.37506 1.18233,-16.37505 -4.97395,-4.97395 -4.97394,-4.97394 0,-27.09681 0,-27.09681 4.92669,-4.92669 4.92669,-4.92669 27.09677,0 27.09678,0 4.92669,4.92669 4.92669,4.92669 0,27.41522 0,27.41522 -5.58403,4.63435 -5.58407,4.63435 1.9616,10.26147 1.9616,10.26146 -4.79925,5.78278 -4.79929,5.78277 1.23697,11.64234 1.23696,11.64233 -23.98069,1.24243 z m -9.89028,-3.28774 7.18475,-0.007 0,-7.96885 0,-7.96886 4.10557,-2.53738 4.10558,-2.53739 0,10.50624 0,10.50624 7.52252,0 7.52255,0 -1.90342,-23.60706 -1.90339,-23.60707 -4.14905,-1.56276 -4.14905,-1.56276 13.08175,-5.50047 13.08171,-5.50046 -1.20868,-29.88697 -1.20872,-29.88696 -30.7918,0 -30.79179,0 -1.20872,29.88696 -1.20868,29.88697 13.5254,5.87613 c 7.43901,3.23187 11.38015,5.94845 8.75813,6.03683 l -4.76731,0.1607 -1.39105,24.64094 -1.39105,24.64094 7.18475,-0.007 z m -10.51302,-29.77291 c 1.03264,-3.95162 1.03264,-10.4179 0,-14.36952 l -1.8776,-7.18476 0,14.36952 0,14.36952 1.8776,-7.18476 z m 45.17633,-4.18371 c 1.04093,-3.99459 0.97249,-9.53712 -0.15232,-12.31673 l -2.04457,-5.05384 0.15231,12.31673 0.15191,12.31673 1.89263,-7.26289 z m 111.06859,38.05472 -22.2226,0 -2.66226,-2.66229 -2.6623,-2.6623 2.43649,-9.70775 2.43646,-9.70775 -5.04715,-6.08146 -5.04714,-6.08146 1.9616,-10.26146 1.9616,-10.26147 -5.58407,-4.63435 -5.58403,-4.63435 0,-27.41522 0,-27.41522 4.92668,-4.92669 4.92669,-4.92669 27.09678,0 27.09678,0 4.92669,4.92669 4.92669,4.92669 0,27.09681 0,27.09681 -4.97395,4.97394 -4.97394,4.97395 1.18232,16.37505 1.18233,16.37506 -4.74576,0 -4.74571,0 2.7052,12.31673 2.7052,12.31673 -22.2226,0 z m -14.69134,-4.10558 7.52252,0 0,-10.50624 0,-10.50624 4.10557,2.53739 4.10557,2.53738 0,7.96886 0,7.96885 7.18476,0.007 7.18475,0.007 -1.39105,-24.64094 -1.39105,-24.64076 -4.76731,-0.16069 c -2.62202,-0.0884 1.31912,-2.80496 8.75813,-6.03683 l 13.5254,-5.87614 -1.20868,-29.88696 -1.20872,-29.88697 -30.7918,0 -30.79179,0 -1.20873,29.88696 -1.20868,29.88697 13.08171,5.50046 13.08175,5.50047 -4.14905,1.56276 -4.14905,1.56276 -1.90338,23.60707 -1.90343,23.60706 7.52256,0 z m 34.98605,-29.76543 c 1.03263,-3.95162 1.03263,-10.4179 0,-14.36952 l -1.8776,-7.18476 0,14.36952 0,14.36952 1.8776,-7.18476 z m -45.14627,-4.18371 c 1.04092,-3.99459 0.97248,-9.53712 -0.15232,-12.31673 l -2.04458,-5.05384 0.15232,12.31673 0.15191,12.31673 1.89263,-7.26289 z"
         id="path3097"
         inkscape:connector-curvature="0" />
      <path
         style="fill:#333333;fill-opacity:1"
         d="m 40.478477,559.93916 c -3.85753,0 -8.10243,-1.08875 -9.43312,-2.41943 l -2.41943,-2.41944 2.18765,-13.48092 2.187655,-13.48093 -4.558057,-2.81703 -4.558056,-2.81704 0.288562,-6.94246 0.288561,-6.94246 3.52845,8.21115 3.528448,8.21116 0.288581,-6.54845 0.288544,-6.54845 -8.211146,-7.43099 -8.211145,-7.43099 0,-27.28161 0,-27.28161 4.926687,-4.92669 4.926687,-4.92669 27.09678,0 27.09678,0 4.926687,4.92669 4.926688,4.92669 0,27.28161 0,27.28161 -8.211146,7.43099 -8.211145,7.43099 0.485751,10.65403 0.485751,10.65402 3.134071,-12.31673 3.134071,-12.31673 0.48575,11.04804 0.485751,11.04803 -4.105572,2.53739 -4.105573,2.53739 0,9.50844 0,9.50845 -12.829915,2.56598 c -7.056453,1.4113 -15.986074,2.56599 -19.8436,2.56599 z m -0.610318,-4.10558 8.650397,0 0.436755,-13.34312 0.43675,-13.34313 4.461366,11.29034 4.461366,11.29034 5.365815,0 5.365811,0 0,-20.52789 0,-20.52788 -7.184752,-0.31235 -7.184752,-0.31236 14.369504,-5.18592 14.369505,-5.18593 0,-30.42553 0,-30.42552 -30.791796,0 -30.791795,0 0,30.42552 0,30.42553 14.369504,5.18593 14.369505,5.18592 -7.184752,0.31236 -7.184753,0.31235 0,16.08652 c 0,8.84759 -1.121416,19.00889 -2.492037,22.58067 l -2.492037,6.49415 8.650396,0 z m 147.197551,4.10558 -22.2226,0 -2.66229,-2.66229 -2.66229,-2.6623 2.43649,-9.70775 2.43649,-9.70775 -5.04716,-6.08146 -5.04715,-6.08146 1.9616,-10.26146 1.9616,-10.26147 -5.58405,-4.63435 -5.58405,-4.63435 0,-27.41522 0,-27.41522 4.92669,-4.92669 4.92669,-4.92669 27.09677,0 27.09678,0 4.92669,4.92669 4.92669,4.92669 0,27.09681 0,27.09681 -4.97394,4.97394 -4.97394,4.97395 1.18232,16.37505 1.18231,16.37506 -4.74573,0 -4.74573,0 2.7052,12.31673 2.70521,12.31673 -22.2226,0 z m -15.81922,-4.10558 8.65039,0 0,-10.50624 0,-10.50624 4.10557,2.53739 4.10558,2.53738 0,7.96886 0,7.96885 7.18475,0.007 7.18475,0.007 -1.39105,-24.64076 -1.39106,-24.64094 -4.7673,-0.1607 c -2.62202,-0.0884 1.31914,-2.80496 8.75812,-6.03683 l 13.52543,-5.87613 -1.20871,-29.88697 -1.20871,-29.88696 -30.7918,0 -30.79179,0 -1.23515,28.64147 -1.23515,28.64147 7.15181,5.22954 7.15181,5.22953 10.50563,0.55911 10.50563,0.55911 -9.23754,1.77922 -9.23754,1.77923 0,17.85377 c 0,9.81957 -1.12141,20.77613 -2.49203,24.34791 l -2.49204,6.49415 8.6504,0 z m 36.11391,-29.76543 c 1.03266,-3.95162 1.03266,-10.4179 0,-14.36952 l -1.87758,-7.18476 0,14.36952 0,14.36952 1.87758,-7.18476 z m -45.14626,-4.18371 c 1.04094,-3.99459 0.97249,-9.53712 -0.15211,-12.31673 l -2.04476,-5.05384 0.15211,12.31673 0.15211,12.31673 1.89262,-7.26289 z m 151.76659,37.24436 -23.9807,1.24243 2.75265,-12.53277 2.75266,-12.53276 -4.74574,0 -4.74573,0 1.18232,-16.37506 1.18231,-16.37505 -4.97393,-4.97395 -4.97394,-4.97394 0,-27.09681 0,-27.09681 4.92668,-4.92669 4.92669,-4.92669 27.09678,0 27.09678,0 4.92669,4.92669 4.92669,4.92669 0,27.41522 0,27.41522 -5.58405,4.63435 -5.58405,4.63435 1.9616,10.26147 1.9616,10.26146 -4.79927,5.78278 -4.79927,5.78277 1.23696,11.64234 1.23697,11.64233 -23.9807,1.24243 z m -9.89027,-3.28774 7.18475,-0.007 0,-7.96885 0,-7.96886 4.10557,-2.53738 4.10557,-2.53739 0,10.50624 0,10.50624 7.52253,0 7.52253,0 -1.90338,-23.60706 -1.90339,-23.60707 -4.14906,-1.56276 -4.14906,-1.56276 13.08174,-5.50047 13.08174,-5.50046 -1.20871,-29.88697 -1.20871,-29.88696 -30.7918,0 -30.79179,0 -1.20871,29.88696 -1.20871,29.88697 13.52543,5.87613 c 7.43898,3.23187 11.38013,5.94845 8.75812,6.03683 l -4.76731,0.1607 -1.39105,24.64094 -1.39106,24.64094 7.18476,-0.007 z m -10.51304,-29.77291 c 1.03267,-3.95162 1.03267,-10.4179 0,-14.36952 l -1.87757,-7.18476 0,14.36952 0,14.36952 1.87757,-7.18476 z m 45.17635,-4.18371 c 1.04094,-3.99459 0.97248,-9.53712 -0.15211,-12.31673 l -2.04477,-5.05384 0.15212,12.31673 0.15211,12.31673 1.89262,-7.26289 z m 118.26927,36.55997 c -6.77419,0.30693 -16.47361,-0.28345 -21.55426,-1.31194 l -9.23754,-1.86998 0,-9.7361 0,-9.73609 -4.5002,-2.78128 -4.5002,-2.78128 1.74779,-11.90846 1.74782,-11.90847 -5.45877,-4.53036 -5.45873,-4.53035 0,-27.41522 0,-27.41522 4.92669,-4.92669 4.92669,-4.92669 27.09678,0 27.09678,0 4.92669,4.92669 4.92668,4.92669 0,27.28161 0,27.28161 -8.21114,7.43099 -8.21115,7.43099 0.28862,6.54845 0.28863,6.54845 3.52845,-8.21116 3.52845,-8.21115 0.28862,6.94246 0.28862,6.94246 -4.37966,2.70679 -4.37966,2.70678 1.30048,14.98422 1.30024,14.98421 -12.31672,0.55804 z m 2.05279,-2.61083 9.08965,0 -2.49204,-6.49415 c -1.37064,-3.57178 -2.49204,-13.73308 -2.49204,-22.58067 l 0,-16.08652 -7.18475,-0.31235 -7.18476,-0.31236 14.36951,-5.18592 14.3695,-5.18593 0,-30.42553 0,-30.42552 -30.79179,0 -30.7918,0 -1.20453,29.68096 -1.20458,29.68096 13.5213,5.90793 13.52125,5.90792 -5.13197,0.3349 -5.13196,0.33494 0,20.52788 0,20.52789 5.71327,0 5.71328,0 2.96828,-11.29034 2.96829,-11.29034 3.06703,8.21116 3.06698,8.21115 -1.92387,5.13197 -1.92391,5.13197 9.08966,0 z m -34.23112,-27.71264 2.07081,-5.13197 -2.07081,-5.13197 -2.07081,-5.13197 0,10.26394 0,10.26394 2.07081,-5.13197 z m 151.89268,31.00786 -23.98069,1.24243 2.75262,-12.53277 2.75267,-12.53276 -4.74572,0 -4.74575,0 1.18232,-16.37506 1.18233,-16.37505 -4.97395,-4.97395 -4.97394,-4.97394 0,-27.09681 0,-27.09681 4.92669,-4.92669 4.92669,-4.92669 27.09677,0 27.09678,0 4.92669,4.92669 4.92669,4.92669 0,27.41522 0,27.41522 -5.58403,4.63435 -5.58407,4.63435 1.9616,10.26147 1.9616,10.26146 -4.79925,5.78278 -4.79929,5.78277 1.23697,11.64234 1.23696,11.64233 -23.98069,1.24243 z m -9.89028,-3.28774 7.18475,-0.007 0,-7.96885 0,-7.96886 4.10557,-2.53738 4.10558,-2.53739 0,10.50624 0,10.50624 7.52252,0 7.52255,0 -1.90342,-23.60706 -1.90339,-23.60707 -4.14905,-1.56276 -4.14905,-1.56276 13.08175,-5.50047 13.08171,-5.50046 -1.20868,-29.88697 -1.20872,-29.88696 -30.7918,0 -30.79179,0 -1.20872,29.88696 -1.20868,29.88697 13.5254,5.87613 c 7.43901,3.23187 11.38015,5.94845 8.75813,6.03683 l -4.76731,0.1607 -1.39105,24.64094 -1.39105,24.64094 7.18475,-0.007 z m -10.51302,-29.77291 c 1.03264,-3.95162 1.03264,-10.4179 0,-14.36952 l -1.8776,-7.18476 0,14.36952 0,14.36952 1.8776,-7.18476 z m 45.17633,-4.18371 c 1.04093,-3.99459 0.97249,-9.53712 -0.15232,-12.31673 l -2.04457,-5.05384 0.15231,12.31673 0.15191,12.31673 1.89263,-7.26289 z m 111.06859,38.05472 -22.2226,0 -2.66226,-2.66229 -2.6623,-2.6623 2.43649,-9.70775 2.43646,-9.70775 -5.04715,-6.08146 -5.04714,-6.08146 1.9616,-10.26146 1.9616,-10.26147 -5.58407,-4.63435 -5.58403,-4.63435 0,-27.41522 0,-27.41522 4.92668,-4.92669 4.92669,-4.92669 27.09678,0 27.09678,0 4.92669,4.92669 4.92669,4.92669 0,27.09681 0,27.09681 -4.97395,4.97394 -4.97394,4.97395 1.18232,16.37505 1.18233,16.37506 -4.74576,0 -4.74571,0 2.7052,12.31673 2.7052,12.31673 -22.2226,0 z m -14.69134,-4.10558 7.52252,0 0,-10.50624 0,-10.50624 4.10557,2.53739 4.10557,2.53738 0,7.96886 0,7.96885 7.18476,0.007 7.18475,0.007 -1.39105,-24.64094 -1.39105,-24.64076 -4.76731,-0.16069 c -2.62202,-0.0884 1.31912,-2.80496 8.75813,-6.03683 l 13.5254,-5.87614 -1.20868,-29.88696 -1.20872,-29.88697 -30.7918,0 -30.79179,0 -1.20873,29.88696 -1.20868,29.88697 13.08171,5.50046 13.08175,5.50047 -4.14905,1.56276 -4.14905,1.56276 -1.90338,23.60707 -1.90343,23.60706 7.52256,0 z m 34.98605,-29.76543 c 1.03263,-3.95162 1.03263,-10.4179 0,-14.36952 l -1.8776,-7.18476 0,14.36952 0,14.36952 1.8776,-7.18476 z m -45.14627,-4.18371 c 1.04092,-3.99459 0.97248,-9.53712 -0.15232,-12.31673 l -2.04458,-5.05384 0.15232,12.31673 0.15191,12.31673 1.89263,-7.26289 z"
         id="path3095"
         inkscape:connector-curvature="0" />
    </g>
  </g>
</svg>
