<?xml version="1.0" encoding="UTF-8" standalone="no"?>
<!-- Created with Inkscape (http://www.inkscape.org/) -->

<svg
   xmlns:dc="http://purl.org/dc/elements/1.1/"
   xmlns:cc="http://creativecommons.org/ns#"
   xmlns:rdf="http://www.w3.org/1999/02/22-rdf-syntax-ns#"
   xmlns:svg="http://www.w3.org/2000/svg"
   xmlns="http://www.w3.org/2000/svg"
   xmlns:sodipodi="http://sodipodi.sourceforge.net/DTD/sodipodi-0.dtd"
   xmlns:inkscape="http://www.inkscape.org/namespaces/inkscape"
   width="64px"
   height="64px"
   id="svg3163"
   version="1.1"
   inkscape:version="0.48.2 r9819"
   sodipodi:docname="D2.svg">
  <defs
     id="defs3165" />
  <sodipodi:namedview
     id="base"
     pagecolor="#ffffff"
     bordercolor="#666666"
     borderopacity="1.0"
     inkscape:pageopacity="0.0"
     inkscape:pageshadow="2"
     inkscape:zoom="5.5"
     inkscape:cx="18.509588"
     inkscape:cy="36.345363"
     inkscape:current-layer="layer1"
     showgrid="true"
     inkscape:document-units="px"
     inkscape:grid-bbox="true"
     inkscape:window-width="1366"
     inkscape:window-height="705"
     inkscape:window-x="-4"
     inkscape:window-y="-4"
     inkscape:window-maximized="1" />
  <metadata
     id="metadata3168">
    <rdf:RDF>
      <cc:Work
         rdf:about="">
        <dc:format>image/svg+xml</dc:format>
        <dc:type
           rdf:resource="http://purl.org/dc/dcmitype/StillImage" />
        <dc:title></dc:title>
      </cc:Work>
    </rdf:RDF>
  </metadata>
  <g
     id="layer1"
     inkscape:label="Layer 1"
     inkscape:groupmode="layer">
    <g
       id="g3101"
       transform="matrix(-0.48714226,0,0,0.48714226,316.38864,-298.00233)">
      <path
         style="fill:#e6e6e6;fill-opacity:1"
         d="m 48.958257,743.15989 c -5.080646,-0.0345 -11.737668,-1.64713 -14.793384,-3.58345 l -5.555847,-3.52059 4.673904,-8.73327 4.673903,-8.73328 -4.728864,0 -4.728859,0 2.065833,-7.18476 c 1.136209,-3.95162 3.224553,-9.96889 4.640767,-13.3717 l 2.574929,-6.18695 -9.293892,-4.077 -9.293892,-4.07699 -1.2224,-28.0822 -1.2224,-28.08219 4.804285,-5.78882 4.804286,-5.78881 27.733597,0 27.7336,0 4.804283,5.78881 4.804284,5.78882 -1.222397,27.97757 -1.222402,27.97758 -9.600701,4.76984 -9.600705,4.76984 4.097579,2.53245 4.097583,2.53244 -0.276223,18.27136 -0.276222,18.27136 -5.88148,2.25694 -5.881479,2.25693 -3.735069,-2.30841 -3.735078,-2.3084 0,4.34787 0,4.34788 -9.237539,-0.0629 z m -3.079179,-4.04271 7.726548,0 2.929433,-4.73992 2.929429,-4.73992 -4.357039,2.69279 -4.357035,2.69281 2.33798,-8.94047 2.337984,-8.94047 3.305195,8.9348 c 1.817862,4.91415 4.90432,8.93481 6.858807,8.93481 1.954487,0 4.776444,-1.22284 6.271016,-2.71741 l 2.717405,-2.71741 -10.244291,-13.43097 c -5.634357,-7.38703 -10.244287,-14.68266 -10.244287,-16.21252 0,-1.52985 3.535982,1.58002 7.857738,6.91083 l 7.857742,9.69238 2.559907,-2.54864 2.559906,-2.54863 -4.918291,-10.79449 -4.918296,-10.79449 -11.657712,0 -11.657712,0 -0.06286,15.39591 -0.06286,15.39592 -3.771806,5.96234 -3.771807,5.96234 2.024187,3.27521 c 1.11328,1.80136 5.501111,3.2752 9.750711,3.2752 z m 9.178168,-54.21783 29.824773,-1.20745 0,-30.79183 0,-30.79183 -30.791796,0 -30.791795,0 -1.237718,26.25382 c -0.680744,14.43961 -0.245585,28.83928 0.967021,31.99928 l 2.204738,5.74547 29.824777,-1.20746 z M 72.565301,665.2168 c -1.129033,0 -2.052787,-0.92376 -2.052787,-2.05279 0,-1.12903 0.923754,-2.05279 2.052787,-2.05279 1.129032,0 2.052786,0.92376 2.052786,2.05279 0,1.12903 -0.923754,2.05279 -2.052786,2.05279 z m 114.717169,78.00596 -18.23621,0 0,-27.76549 0,-27.76549 -9.23754,-4.05273 -9.23754,-4.05273 -1.2224,-28.0822 -1.2224,-28.08219 4.80429,-5.78881 4.80428,-5.78882 27.7336,0 27.7336,0 4.80428,5.78882 4.80429,5.78881 -1.2224,28.08219 -1.2224,28.0822 -9.69433,4.10558 -9.69434,4.10557 2.27071,27.71265 2.27071,27.71264 -18.2362,0 z m -11.94555,-4.10558 c 1.2018,0 4.02517,-4.15689 6.27417,-9.23754 l 4.08908,-9.23755 -1.78423,9.23755 -1.78424,9.23754 10.31882,0 10.31882,0 -2.49203,-6.49415 c -1.37063,-3.57178 -2.49204,-8.19056 -2.49204,-10.26394 l 0,-3.76979 -6.25998,0 -6.25997,0 -4.13879,-10.88585 c -2.27633,-5.98721 -3.43157,-12.91537 -2.56719,-15.39591 l 1.57159,-4.51007 2.99502,13.34313 2.99502,13.34312 5.83215,0 5.83215,0 0,-3.86328 c 0,-2.1248 -1.84751,-5.0051 -4.10557,-6.40066 l -4.10558,-2.53739 0.28856,-6.94246 0.28857,-6.94246 3.52845,8.21116 3.52844,8.21115 0.28858,-9.23755 0.28855,-9.23755 -12.31672,0 -12.31672,0 0,26.68625 c 0,14.67744 0.98329,26.68625 2.18509,26.68625 z m 11.09865,-58.32341 29.82478,-1.20745 0,-30.79183 0,-30.79182 -30.7918,0 -30.7918,0 -1.23771,26.25382 c -0.68075,14.4396 -0.2456,28.83928 0.96702,31.99928 l 2.20474,5.74546 29.82477,-1.20746 z m 17.50806,-19.68255 c -1.12904,0 -2.05279,-0.92375 -2.05279,-2.05279 0,-1.12903 0.92375,-2.05278 2.05279,-2.05278 1.12903,0 2.05278,0.92375 2.05278,2.05278 0,1.12904 -0.92375,2.05279 -2.05278,2.05279 z m 114.40786,82.11154 -17.9269,0 0,-27.76549 0,-27.76549 -9.23754,-4.05273 -9.23754,-4.05273 -1.2224,-28.0822 -1.2224,-28.08219 4.80428,-5.78881 4.80429,-5.78882 27.7336,0 27.7336,0 4.80428,5.78882 4.80428,5.78881 -1.22239,28.08219 -1.22241,28.0822 -9.66746,4.10558 -9.66746,4.10557 1.93453,27.71265 1.93454,27.71264 -17.9269,0 z m -5.33352,-4.10558 8.48781,0 -2.7693,-8.72529 -2.7693,-8.72529 4.54542,2.80923 c 2.49998,1.54507 4.54542,5.47145 4.54542,8.72529 l 0,5.91606 4.54483,0 4.54482,0 -2.49204,-6.49415 c -1.37062,-3.57178 -2.49204,-15.58059 -2.49204,-26.68624 l 0,-20.19211 -11.29032,0 -11.29033,0 0,13.2869 0,13.2869 7.59441,1.46255 7.59441,1.46255 -2.48268,-13.72305 -2.48268,-13.72306 4.27405,9.99592 4.27405,9.99591 -2.25092,5.86579 -2.25091,5.86579 -8.16125,-2.13422 -8.16126,-2.13421 0,11.93237 0,11.93236 8.48781,0 z m 4.79593,-58.32341 29.82477,-1.20745 0,-30.79183 0,-30.79182 -30.79179,0 -30.7918,0 -1.23772,26.25382 c -0.68074,14.4396 -0.24559,28.83928 0.96702,31.99928 l 2.20474,5.74546 29.82478,-1.20746 z m 17.50805,-19.68255 c -1.12903,0 -2.05278,-0.92375 -2.05278,-2.05279 0,-1.12903 0.92375,-2.05278 2.05278,-2.05278 1.12904,0 2.05279,0.92375 2.05279,2.05278 0,1.12904 -0.92375,2.05279 -2.05279,2.05279 z m 111.61427,80.72176 -13.08052,1.27454 -5.55587,-3.52584 -5.55582,-3.52583 4.33729,-8.10432 4.33729,-8.10432 -4.29373,-4.29376 -4.29377,-4.29376 4.81854,-9.00355 c 2.65019,-4.95196 4.20698,-9.3072 3.45952,-9.67832 -0.74746,-0.37113 -5.05404,-2.71515 -9.57017,-5.20895 l -8.21114,-4.53417 -1.2224,-27.65359 -1.22239,-27.6536 4.80426,-5.78882 4.8043,-5.78881 27.73359,0 27.7336,0 4.8043,5.78881 4.80426,5.78882 -1.2224,27.6536 -1.22239,27.65359 -8.21114,4.53417 c -4.51613,2.4938 -8.80104,4.81615 -9.52202,5.16078 -0.72098,0.34462 1.12653,4.5579 4.10557,9.36282 l 5.41645,8.73622 -6.15836,3.91744 -6.15836,3.91743 5.13196,0.0629 5.13197,0.0629 0,5.65566 0,5.65566 -6.42095,5.32891 -6.42091,5.32891 -13.08056,1.27454 z m -6.20102,-2.7158 8.44767,0 -2.36764,-9.23754 -2.36765,-9.23755 7.27939,9.55696 7.27934,9.55696 5.52048,-6.65178 5.52052,-6.65178 -4.7527,-4.75269 -4.75269,-4.75269 0,-13.54841 0,-13.5484 -11.65769,0 -11.65773,0 -4.76456,10.45712 c -2.62055,5.75142 -4.7646,11.29395 -4.7646,12.31673 0,1.02279 2.01325,1.85961 4.47388,1.85961 2.46064,0 7.9417,-4.15689 12.18013,-9.23755 l 7.70624,-9.23754 0.13672,4.78984 c 0.0751,2.63441 -1.28283,5.40567 -3.01764,6.15836 -1.73481,0.75269 -7.25217,6.66633 -12.26076,13.14142 l -9.10657,11.7729 2.23914,3.62301 2.23914,3.62302 8.4477,0 z m 8.45703,-54.21783 29.82477,-1.20745 0,-30.79183 0,-30.79183 -30.7918,0 -30.79179,0 -1.23771,26.25382 c -0.68074,14.43961 -0.24551,28.83928 0.96703,31.99928 l 2.20473,5.74547 29.82477,-1.20746 z m 17.50805,-19.68255 c -1.12903,0 -2.05279,-0.92376 -2.05279,-2.05279 0,-1.12903 0.92376,-2.05279 2.05279,-2.05279 1.12903,0 2.05279,0.92376 2.05279,2.05279 0,1.12903 -0.92376,2.05279 -2.05279,2.05279 z m 114.40786,78.00596 -17.9269,0 0,-27.76549 0,-27.76549 -9.23754,-4.05273 -9.23754,-4.05273 -1.22239,-28.0822 -1.22239,-28.08219 4.80425,-5.78881 4.8043,-5.78882 27.7336,0 27.7336,0 4.8043,5.78882 4.80425,5.78881 -1.22239,28.08219 -1.22239,28.0822 -9.66748,4.10558 -9.66747,4.10557 1.93455,27.71265 1.93454,27.71264 -17.9269,0 z m -5.33351,-4.10558 8.48782,0 -2.76933,-8.72529 -2.76929,-8.72529 4.54544,2.80923 c 2.49997,1.54507 4.54541,5.47145 4.54541,8.72529 l 0,5.91606 4.54482,0 4.54483,0 -2.49204,-6.49415 c -1.37065,-3.57178 -2.49204,-15.58059 -2.49204,-26.68624 l 0,-20.19211 -11.29033,0 -11.29032,0 0,13.2869 0,13.2869 7.5944,1.46255 7.59441,1.46255 -2.48268,-13.72305 -2.48268,-13.72306 4.27406,9.99592 4.27403,9.99591 -2.25088,5.86579 -2.25092,5.86579 -8.16127,-2.13422 -8.16126,-2.13421 0,11.93237 0,11.93236 8.48782,0 z m 4.79593,-58.32341 29.82477,-1.20745 0,-30.79183 0,-30.79182 -30.7918,0 -30.7918,0 -1.2377,26.25382 c -0.68075,14.4396 -0.24552,28.83928 0.96702,31.99928 l 2.20474,5.74546 29.82477,-1.20746 z m 17.50805,-19.68255 c -1.12904,0 -2.05279,-0.92375 -2.05279,-2.05279 0,-1.12903 0.92375,-2.05278 2.05279,-2.05278 1.12903,0 2.05278,0.92375 2.05278,2.05278 0,1.12904 -0.92375,2.05279 -2.05278,2.05279 z m 114.71717,82.11154 -18.23621,0 0,-27.76549 0,-27.76549 -9.23754,-4.05273 -9.23754,-4.05273 -1.22239,-28.0822 -1.2224,-28.08219 4.80426,-5.78881 4.8043,-5.78882 27.7336,0 27.73359,0 4.8043,5.78882 4.80426,5.78881 -1.22239,28.08219 -1.2224,28.0822 -9.69432,4.10558 -9.69432,4.10557 2.27071,27.71265 2.27071,27.71264 -18.23622,0 z m -11.94557,-4.10558 c 1.20182,0 4.02518,-4.15689 6.27417,-9.23754 l 4.08911,-9.23755 -1.78424,9.23755 -1.78424,9.23754 10.31882,0 10.31883,0 -2.49204,-6.49415 c -1.37065,-3.57178 -2.49205,-8.19056 -2.49205,-10.26394 l 0,-3.76979 -6.25997,0 -6.25997,0 -4.13879,-10.88585 c -2.27633,-5.98721 -3.43156,-12.91537 -2.56721,-15.39591 l 1.57161,-4.51007 2.99502,13.34313 2.99501,13.34312 5.83217,0 5.83213,0 0,-3.86328 c 0,-2.1248 -1.8475,-5.0051 -4.10557,-6.40066 l -4.10557,-2.53739 0.28862,-6.94246 0.28862,-6.94246 3.52846,8.21116 3.52845,8.21115 0.28862,-9.23755 0.28837,-9.23755 -12.31671,0 -12.31672,0 0,26.68625 c 0,14.67744 0.98328,26.68625 2.18507,26.68625 z m 11.09867,-58.32341 29.82477,-1.20745 0,-30.79183 0,-30.79182 -30.79179,0 -30.7918,0 -1.23771,26.25382 c -0.68074,14.4396 -0.24551,28.83928 0.96703,31.99928 l 2.20473,5.74546 29.82477,-1.20746 z m 17.50805,-19.68255 c -1.12903,0 -2.05278,-0.92375 -2.05278,-2.05279 0,-1.12903 0.92375,-2.05278 2.05278,-2.05278 1.12904,0 2.05279,0.92375 2.05279,2.05278 0,1.12904 -0.92375,2.05279 -2.05279,2.05279 z"
         id="path3107"
         inkscape:connector-curvature="0" />
      <path
         style="fill:#8c8c8c;fill-opacity:1"
         d="m 48.958257,743.15989 c -5.080646,-0.0345 -11.737668,-1.64713 -14.793384,-3.58345 l -5.555847,-3.52059 4.673904,-8.73327 4.673903,-8.73328 -4.728864,0 -4.728859,0 2.065833,-7.18476 c 1.136209,-3.95162 3.224553,-9.96889 4.640767,-13.3717 l 2.574929,-6.18695 -9.293892,-4.077 -9.293892,-4.07699 -1.2224,-28.0822 -1.2224,-28.08219 4.804285,-5.78882 4.804286,-5.78881 27.733597,0 27.7336,0 4.804283,5.78881 4.804284,5.78882 -1.222397,27.97757 -1.222402,27.97758 -9.600701,4.76984 -9.600705,4.76984 4.097579,2.53245 4.097583,2.53244 -0.276223,18.27136 -0.276222,18.27136 -5.88148,2.25694 -5.881479,2.25693 -3.735069,-2.30841 -3.735078,-2.3084 0,4.34787 0,4.34788 -9.237539,-0.0629 z m -3.079179,-4.04271 7.726548,0 2.929433,-4.73992 2.929429,-4.73992 -4.357039,2.69279 -4.357035,2.69281 2.33798,-8.94047 2.337984,-8.94047 3.305195,8.9348 c 1.817862,4.91415 4.90432,8.93481 6.858807,8.93481 1.954487,0 4.776444,-1.22284 6.271016,-2.71741 l 2.717405,-2.71741 -10.244291,-13.43097 c -5.634357,-7.38703 -10.244287,-14.68266 -10.244287,-16.21252 0,-1.52985 3.535982,1.58002 7.857738,6.91083 l 7.857742,9.69238 2.559907,-2.54864 2.559906,-2.54863 -4.918291,-10.79449 -4.918296,-10.79449 -11.657712,0 -11.657712,0 -0.06286,15.39591 -0.06286,15.39592 -3.771806,5.96234 -3.771807,5.96234 2.024187,3.27521 c 1.11328,1.80136 5.501111,3.2752 9.750711,3.2752 z m 9.178168,-54.21783 29.824773,-1.20745 0,-30.79183 0,-30.79183 -30.791796,0 -30.791795,0 -1.237718,26.25382 c -0.680744,14.43961 -0.245585,28.83928 0.967021,31.99928 l 2.204738,5.74547 29.824777,-1.20746 z M 72.565301,665.2168 c -1.129033,0 -2.052787,-0.92376 -2.052787,-2.05279 0,-1.12903 0.923754,-2.05279 2.052787,-2.05279 1.129032,0 2.052786,0.92376 2.052786,2.05279 0,1.12903 -0.923754,2.05279 -2.052786,2.05279 z m 114.717169,78.00596 -18.23621,0 0,-27.76549 0,-27.76549 -9.23754,-4.05273 -9.23754,-4.05273 -1.2224,-28.0822 -1.2224,-28.08219 4.80429,-5.78881 4.80428,-5.78882 27.7336,0 27.7336,0 4.80428,5.78882 4.80429,5.78881 -1.2224,28.08219 -1.2224,28.0822 -9.69433,4.10558 -9.69434,4.10557 2.27071,27.71265 2.27071,27.71264 -18.2362,0 z m -11.94555,-4.10558 c 1.2018,0 4.02517,-4.15689 6.27417,-9.23754 l 4.08908,-9.23755 -1.78423,9.23755 -1.78424,9.23754 10.31882,0 10.31882,0 -2.49203,-6.49415 c -1.37063,-3.57178 -2.49204,-8.19056 -2.49204,-10.26394 l 0,-3.76979 -6.25998,0 -6.25997,0 -4.13879,-10.88585 c -2.27633,-5.98721 -3.43157,-12.91537 -2.56719,-15.39591 l 1.57159,-4.51007 2.99502,13.34313 2.99502,13.34312 5.83215,0 5.83215,0 0,-3.86328 c 0,-2.1248 -1.84751,-5.0051 -4.10557,-6.40066 l -4.10558,-2.53739 0.28856,-6.94246 0.28857,-6.94246 3.52845,8.21116 3.52844,8.21115 0.28858,-9.23755 0.28855,-9.23755 -12.31672,0 -12.31672,0 0,26.68625 c 0,14.67744 0.98329,26.68625 2.18509,26.68625 z m 11.09865,-58.32341 29.82478,-1.20745 0,-30.79183 0,-30.79182 -30.7918,0 -30.7918,0 -1.23771,26.25382 c -0.68075,14.4396 -0.2456,28.83928 0.96702,31.99928 l 2.20474,5.74546 29.82477,-1.20746 z m 17.50806,-19.68255 c -1.12904,0 -2.05279,-0.92375 -2.05279,-2.05279 0,-1.12903 0.92375,-2.05278 2.05279,-2.05278 1.12903,0 2.05278,0.92375 2.05278,2.05278 0,1.12904 -0.92375,2.05279 -2.05278,2.05279 z m 114.40786,82.11154 -17.9269,0 0,-27.76549 0,-27.76549 -9.23754,-4.05273 -9.23754,-4.05273 -1.2224,-28.0822 -1.2224,-28.08219 4.80428,-5.78881 4.80429,-5.78882 27.7336,0 27.7336,0 4.80428,5.78882 4.80428,5.78881 -1.22239,28.08219 -1.22241,28.0822 -9.66746,4.10558 -9.66746,4.10557 1.93453,27.71265 1.93454,27.71264 -17.9269,0 z m -5.33352,-4.10558 8.48781,0 -2.7693,-8.72529 -2.7693,-8.72529 4.54542,2.80923 c 2.49998,1.54507 4.54542,5.47145 4.54542,8.72529 l 0,5.91606 4.54483,0 4.54482,0 -2.49204,-6.49415 c -1.37062,-3.57178 -2.49204,-15.58059 -2.49204,-26.68624 l 0,-20.19211 -11.29032,0 -11.29033,0 0,13.2869 0,13.2869 7.59441,1.46255 7.59441,1.46255 -2.48268,-13.72305 -2.48268,-13.72306 4.27405,9.99592 4.27405,9.99591 -2.25092,5.86579 -2.25091,5.86579 -8.16125,-2.13422 -8.16126,-2.13421 0,11.93237 0,11.93236 8.48781,0 z m 4.79593,-58.32341 29.82477,-1.20745 0,-30.79183 0,-30.79182 -30.79179,0 -30.7918,0 -1.23772,26.25382 c -0.68074,14.4396 -0.24559,28.83928 0.96702,31.99928 l 2.20474,5.74546 29.82478,-1.20746 z m 17.50805,-19.68255 c -1.12903,0 -2.05278,-0.92375 -2.05278,-2.05279 0,-1.12903 0.92375,-2.05278 2.05278,-2.05278 1.12904,0 2.05279,0.92375 2.05279,2.05278 0,1.12904 -0.92375,2.05279 -2.05279,2.05279 z m 111.61427,80.72176 -13.08052,1.27454 -5.55587,-3.52584 -5.55582,-3.52583 4.33729,-8.10432 4.33729,-8.10432 -4.29373,-4.29376 -4.29377,-4.29376 4.81854,-9.00355 c 2.65019,-4.95196 4.20698,-9.3072 3.45952,-9.67832 -0.74746,-0.37113 -5.05404,-2.71515 -9.57017,-5.20895 l -8.21114,-4.53417 -1.2224,-27.65359 -1.22239,-27.6536 4.80426,-5.78882 4.8043,-5.78881 27.73359,0 27.7336,0 4.8043,5.78881 4.80426,5.78882 -1.2224,27.6536 -1.22239,27.65359 -8.21114,4.53417 c -4.51613,2.4938 -8.80104,4.81615 -9.52202,5.16078 -0.72098,0.34462 1.12653,4.5579 4.10557,9.36282 l 5.41645,8.73622 -6.15836,3.91744 -6.15836,3.91743 5.13196,0.0629 5.13197,0.0629 0,5.65566 0,5.65566 -6.42095,5.32891 -6.42091,5.32891 -13.08056,1.27454 z m -6.20102,-2.7158 8.44767,0 -2.36764,-9.23754 -2.36765,-9.23755 7.27939,9.55696 7.27934,9.55696 5.52048,-6.65178 5.52052,-6.65178 -4.7527,-4.75269 -4.75269,-4.75269 0,-13.54841 0,-13.5484 -11.65769,0 -11.65773,0 -4.76456,10.45712 c -2.62055,5.75142 -4.7646,11.29395 -4.7646,12.31673 0,1.02279 2.01325,1.85961 4.47388,1.85961 2.46064,0 7.9417,-4.15689 12.18013,-9.23755 l 7.70624,-9.23754 0.13672,4.78984 c 0.0751,2.63441 -1.28283,5.40567 -3.01764,6.15836 -1.73481,0.75269 -7.25217,6.66633 -12.26076,13.14142 l -9.10657,11.7729 2.23914,3.62301 2.23914,3.62302 8.4477,0 z m 8.45703,-54.21783 29.82477,-1.20745 0,-30.79183 0,-30.79183 -30.7918,0 -30.79179,0 -1.23771,26.25382 c -0.68074,14.43961 -0.24551,28.83928 0.96703,31.99928 l 2.20473,5.74547 29.82477,-1.20746 z m 17.50805,-19.68255 c -1.12903,0 -2.05279,-0.92376 -2.05279,-2.05279 0,-1.12903 0.92376,-2.05279 2.05279,-2.05279 1.12903,0 2.05279,0.92376 2.05279,2.05279 0,1.12903 -0.92376,2.05279 -2.05279,2.05279 z m 114.40786,78.00596 -17.9269,0 0,-27.76549 0,-27.76549 -9.23754,-4.05273 -9.23754,-4.05273 -1.22239,-28.0822 -1.22239,-28.08219 4.80425,-5.78881 4.8043,-5.78882 27.7336,0 27.7336,0 4.8043,5.78882 4.80425,5.78881 -1.22239,28.08219 -1.22239,28.0822 -9.66748,4.10558 -9.66747,4.10557 1.93455,27.71265 1.93454,27.71264 -17.9269,0 z m -5.33351,-4.10558 8.48782,0 -2.76933,-8.72529 -2.76929,-8.72529 4.54544,2.80923 c 2.49997,1.54507 4.54541,5.47145 4.54541,8.72529 l 0,5.91606 4.54482,0 4.54483,0 -2.49204,-6.49415 c -1.37065,-3.57178 -2.49204,-15.58059 -2.49204,-26.68624 l 0,-20.19211 -11.29033,0 -11.29032,0 0,13.2869 0,13.2869 7.5944,1.46255 7.59441,1.46255 -2.48268,-13.72305 -2.48268,-13.72306 4.27406,9.99592 4.27403,9.99591 -2.25088,5.86579 -2.25092,5.86579 -8.16127,-2.13422 -8.16126,-2.13421 0,11.93237 0,11.93236 8.48782,0 z m 4.79593,-58.32341 29.82477,-1.20745 0,-30.79183 0,-30.79182 -30.7918,0 -30.7918,0 -1.2377,26.25382 c -0.68075,14.4396 -0.24552,28.83928 0.96702,31.99928 l 2.20474,5.74546 29.82477,-1.20746 z m 17.50805,-19.68255 c -1.12904,0 -2.05279,-0.92375 -2.05279,-2.05279 0,-1.12903 0.92375,-2.05278 2.05279,-2.05278 1.12903,0 2.05278,0.92375 2.05278,2.05278 0,1.12904 -0.92375,2.05279 -2.05278,2.05279 z m 114.71717,82.11154 -18.23621,0 0,-27.76549 0,-27.76549 -9.23754,-4.05273 -9.23754,-4.05273 -1.22239,-28.0822 -1.2224,-28.08219 4.80426,-5.78881 4.8043,-5.78882 27.7336,0 27.73359,0 4.8043,5.78882 4.80426,5.78881 -1.22239,28.08219 -1.2224,28.0822 -9.69432,4.10558 -9.69432,4.10557 2.27071,27.71265 2.27071,27.71264 -18.23622,0 z m -11.94557,-4.10558 c 1.20182,0 4.02518,-4.15689 6.27417,-9.23754 l 4.08911,-9.23755 -1.78424,9.23755 -1.78424,9.23754 10.31882,0 10.31883,0 -2.49204,-6.49415 c -1.37065,-3.57178 -2.49205,-8.19056 -2.49205,-10.26394 l 0,-3.76979 -6.25997,0 -6.25997,0 -4.13879,-10.88585 c -2.27633,-5.98721 -3.43156,-12.91537 -2.56721,-15.39591 l 1.57161,-4.51007 2.99502,13.34313 2.99501,13.34312 5.83217,0 5.83213,0 0,-3.86328 c 0,-2.1248 -1.8475,-5.0051 -4.10557,-6.40066 l -4.10557,-2.53739 0.28862,-6.94246 0.28862,-6.94246 3.52846,8.21116 3.52845,8.21115 0.28862,-9.23755 0.28837,-9.23755 -12.31671,0 -12.31672,0 0,26.68625 c 0,14.67744 0.98328,26.68625 2.18507,26.68625 z m 11.09867,-58.32341 29.82477,-1.20745 0,-30.79183 0,-30.79182 -30.79179,0 -30.7918,0 -1.23771,26.25382 c -0.68074,14.4396 -0.24551,28.83928 0.96703,31.99928 l 2.20473,5.74546 29.82477,-1.20746 z m 17.50805,-19.68255 c -1.12903,0 -2.05278,-0.92375 -2.05278,-2.05279 0,-1.12903 0.92375,-2.05278 2.05278,-2.05278 1.12904,0 2.05279,0.92375 2.05279,2.05278 0,1.12904 -0.92375,2.05279 -2.05279,2.05279 z"
         id="path3105"
         inkscape:connector-curvature="0" />
      <path
         style="fill:#333333;fill-opacity:1"
         d="m 48.958257,743.15989 c -5.080646,-0.0345 -11.737668,-1.64713 -14.793384,-3.58345 l -5.555847,-3.52059 4.673904,-8.73327 4.673903,-8.73328 -4.728864,0 -4.728859,0 2.065833,-7.18476 c 1.136209,-3.95162 3.224553,-9.96889 4.640767,-13.3717 l 2.574929,-6.18695 -9.293892,-4.077 -9.293892,-4.07699 -1.2224,-28.0822 -1.2224,-28.08219 4.804285,-5.78882 4.804286,-5.78881 27.733597,0 27.7336,0 4.804283,5.78881 4.804284,5.78882 -1.222397,27.97757 -1.222402,27.97758 -9.600701,4.76984 -9.600705,4.76984 4.097579,2.53245 4.097583,2.53244 -0.276223,18.27136 -0.276222,18.27136 -5.88148,2.25694 -5.881479,2.25693 -3.735069,-2.30841 -3.735078,-2.3084 0,4.34787 0,4.34788 -9.237539,-0.0629 z m -3.079179,-4.04271 7.726548,0 2.929433,-4.73992 2.929429,-4.73992 -4.357039,2.69279 -4.357035,2.69281 2.33798,-8.94047 2.337984,-8.94047 3.305195,8.9348 c 1.817862,4.91415 4.90432,8.93481 6.858807,8.93481 1.954487,0 4.776444,-1.22284 6.271016,-2.71741 l 2.717405,-2.71741 -10.244291,-13.43097 c -5.634357,-7.38703 -10.244287,-14.68266 -10.244287,-16.21252 0,-1.52985 3.535982,1.58002 7.857738,6.91083 l 7.857742,9.69238 2.559907,-2.54864 2.559906,-2.54863 -4.918291,-10.79449 -4.918296,-10.79449 -11.657712,0 -11.657712,0 -0.06286,15.39591 -0.06286,15.39592 -3.771806,5.96234 -3.771807,5.96234 2.024187,3.27521 c 1.11328,1.80136 5.501111,3.2752 9.750711,3.2752 z m 9.178168,-54.21783 29.824773,-1.20745 0,-30.79183 0,-30.79183 -30.791796,0 -30.791795,0 -1.237718,26.25382 c -0.680744,14.43961 -0.245585,28.83928 0.967021,31.99928 l 2.204738,5.74547 29.824777,-1.20746 z M 72.565301,665.2168 c -1.129033,0 -2.052787,-0.92376 -2.052787,-2.05279 0,-1.12903 0.923754,-2.05279 2.052787,-2.05279 1.129032,0 2.052786,0.92376 2.052786,2.05279 0,1.12903 -0.923754,2.05279 -2.052786,2.05279 z m 114.717169,78.00596 -18.23621,0 0,-27.76549 0,-27.76549 -9.23754,-4.05273 -9.23754,-4.05273 -1.2224,-28.0822 -1.2224,-28.08219 4.80429,-5.78881 4.80428,-5.78882 27.7336,0 27.7336,0 4.80428,5.78882 4.80429,5.78881 -1.2224,28.08219 -1.2224,28.0822 -9.69433,4.10558 -9.69434,4.10557 2.27071,27.71265 2.27071,27.71264 -18.2362,0 z m -11.94555,-4.10558 c 1.2018,0 4.02517,-4.15689 6.27417,-9.23754 l 4.08908,-9.23755 -1.78423,9.23755 -1.78424,9.23754 10.31882,0 10.31882,0 -2.49203,-6.49415 c -1.37063,-3.57178 -2.49204,-8.19056 -2.49204,-10.26394 l 0,-3.76979 -6.25998,0 -6.25997,0 -4.13879,-10.88585 c -2.27633,-5.98721 -3.43157,-12.91537 -2.56719,-15.39591 l 1.57159,-4.51007 2.99502,13.34313 2.99502,13.34312 5.83215,0 5.83215,0 0,-3.86328 c 0,-2.1248 -1.84751,-5.0051 -4.10557,-6.40066 l -4.10558,-2.53739 0.28856,-6.94246 0.28857,-6.94246 3.52845,8.21116 3.52844,8.21115 0.28858,-9.23755 0.28855,-9.23755 -12.31672,0 -12.31672,0 0,26.68625 c 0,14.67744 0.98329,26.68625 2.18509,26.68625 z m 11.09865,-58.32341 29.82478,-1.20745 0,-30.79183 0,-30.79182 -30.7918,0 -30.7918,0 -1.23771,26.25382 c -0.68075,14.4396 -0.2456,28.83928 0.96702,31.99928 l 2.20474,5.74546 29.82477,-1.20746 z m 17.50806,-19.68255 c -1.12904,0 -2.05279,-0.92375 -2.05279,-2.05279 0,-1.12903 0.92375,-2.05278 2.05279,-2.05278 1.12903,0 2.05278,0.92375 2.05278,2.05278 0,1.12904 -0.92375,2.05279 -2.05278,2.05279 z m 114.40786,82.11154 -17.9269,0 0,-27.76549 0,-27.76549 -9.23754,-4.05273 -9.23754,-4.05273 -1.2224,-28.0822 -1.2224,-28.08219 4.80428,-5.78881 4.80429,-5.78882 27.7336,0 27.7336,0 4.80428,5.78882 4.80428,5.78881 -1.22239,28.08219 -1.22241,28.0822 -9.66746,4.10558 -9.66746,4.10557 1.93453,27.71265 1.93454,27.71264 -17.9269,0 z m -5.33352,-4.10558 8.48781,0 -2.7693,-8.72529 -2.7693,-8.72529 4.54542,2.80923 c 2.49998,1.54507 4.54542,5.47145 4.54542,8.72529 l 0,5.91606 4.54483,0 4.54482,0 -2.49204,-6.49415 c -1.37062,-3.57178 -2.49204,-15.58059 -2.49204,-26.68624 l 0,-20.19211 -11.29032,0 -11.29033,0 0,13.2869 0,13.2869 7.59441,1.46255 7.59441,1.46255 -2.48268,-13.72305 -2.48268,-13.72306 4.27405,9.99592 4.27405,9.99591 -2.25092,5.86579 -2.25091,5.86579 -8.16125,-2.13422 -8.16126,-2.13421 0,11.93237 0,11.93236 8.48781,0 z m 4.79593,-58.32341 29.82477,-1.20745 0,-30.79183 0,-30.79182 -30.79179,0 -30.7918,0 -1.23772,26.25382 c -0.68074,14.4396 -0.24559,28.83928 0.96702,31.99928 l 2.20474,5.74546 29.82478,-1.20746 z m 17.50805,-19.68255 c -1.12903,0 -2.05278,-0.92375 -2.05278,-2.05279 0,-1.12903 0.92375,-2.05278 2.05278,-2.05278 1.12904,0 2.05279,0.92375 2.05279,2.05278 0,1.12904 -0.92375,2.05279 -2.05279,2.05279 z m 111.61427,80.72176 -13.08052,1.27454 -5.55587,-3.52584 -5.55582,-3.52583 4.33729,-8.10432 4.33729,-8.10432 -4.29373,-4.29376 -4.29377,-4.29376 4.81854,-9.00355 c 2.65019,-4.95196 4.20698,-9.3072 3.45952,-9.67832 -0.74746,-0.37113 -5.05404,-2.71515 -9.57017,-5.20895 l -8.21114,-4.53417 -1.2224,-27.65359 -1.22239,-27.6536 4.80426,-5.78882 4.8043,-5.78881 27.73359,0 27.7336,0 4.8043,5.78881 4.80426,5.78882 -1.2224,27.6536 -1.22239,27.65359 -8.21114,4.53417 c -4.51613,2.4938 -8.80104,4.81615 -9.52202,5.16078 -0.72098,0.34462 1.12653,4.5579 4.10557,9.36282 l 5.41645,8.73622 -6.15836,3.91744 -6.15836,3.91743 5.13196,0.0629 5.13197,0.0629 0,5.65566 0,5.65566 -6.42095,5.32891 -6.42091,5.32891 -13.08056,1.27454 z m -6.20102,-2.7158 8.44767,0 -2.36764,-9.23754 -2.36765,-9.23755 7.27939,9.55696 7.27934,9.55696 5.52048,-6.65178 5.52052,-6.65178 -4.7527,-4.75269 -4.75269,-4.75269 0,-13.54841 0,-13.5484 -11.65769,0 -11.65773,0 -4.76456,10.45712 c -2.62055,5.75142 -4.7646,11.29395 -4.7646,12.31673 0,1.02279 2.01325,1.85961 4.47388,1.85961 2.46064,0 7.9417,-4.15689 12.18013,-9.23755 l 7.70624,-9.23754 0.13672,4.78984 c 0.0751,2.63441 -1.28283,5.40567 -3.01764,6.15836 -1.73481,0.75269 -7.25217,6.66633 -12.26076,13.14142 l -9.10657,11.7729 2.23914,3.62301 2.23914,3.62302 8.4477,0 z m 8.45703,-54.21783 29.82477,-1.20745 0,-30.79183 0,-30.79183 -30.7918,0 -30.79179,0 -1.23771,26.25382 c -0.68074,14.43961 -0.24551,28.83928 0.96703,31.99928 l 2.20473,5.74547 29.82477,-1.20746 z m 17.50805,-19.68255 c -1.12903,0 -2.05279,-0.92376 -2.05279,-2.05279 0,-1.12903 0.92376,-2.05279 2.05279,-2.05279 1.12903,0 2.05279,0.92376 2.05279,2.05279 0,1.12903 -0.92376,2.05279 -2.05279,2.05279 z m 114.40786,78.00596 -17.9269,0 0,-27.76549 0,-27.76549 -9.23754,-4.05273 -9.23754,-4.05273 -1.22239,-28.0822 -1.22239,-28.08219 4.80425,-5.78881 4.8043,-5.78882 27.7336,0 27.7336,0 4.8043,5.78882 4.80425,5.78881 -1.22239,28.08219 -1.22239,28.0822 -9.66748,4.10558 -9.66747,4.10557 1.93455,27.71265 1.93454,27.71264 -17.9269,0 z m -5.33351,-4.10558 8.48782,0 -2.76933,-8.72529 -2.76929,-8.72529 4.54544,2.80923 c 2.49997,1.54507 4.54541,5.47145 4.54541,8.72529 l 0,5.91606 4.54482,0 4.54483,0 -2.49204,-6.49415 c -1.37065,-3.57178 -2.49204,-15.58059 -2.49204,-26.68624 l 0,-20.19211 -11.29033,0 -11.29032,0 0,13.2869 0,13.2869 7.5944,1.46255 7.59441,1.46255 -2.48268,-13.72305 -2.48268,-13.72306 4.27406,9.99592 4.27403,9.99591 -2.25088,5.86579 -2.25092,5.86579 -8.16127,-2.13422 -8.16126,-2.13421 0,11.93237 0,11.93236 8.48782,0 z m 4.79593,-58.32341 29.82477,-1.20745 0,-30.79183 0,-30.79182 -30.7918,0 -30.7918,0 -1.2377,26.25382 c -0.68075,14.4396 -0.24552,28.83928 0.96702,31.99928 l 2.20474,5.74546 29.82477,-1.20746 z m 17.50805,-19.68255 c -1.12904,0 -2.05279,-0.92375 -2.05279,-2.05279 0,-1.12903 0.92375,-2.05278 2.05279,-2.05278 1.12903,0 2.05278,0.92375 2.05278,2.05278 0,1.12904 -0.92375,2.05279 -2.05278,2.05279 z m 114.71717,82.11154 -18.23621,0 0,-27.76549 0,-27.76549 -9.23754,-4.05273 -9.23754,-4.05273 -1.22239,-28.0822 -1.2224,-28.08219 4.80426,-5.78881 4.8043,-5.78882 27.7336,0 27.73359,0 4.8043,5.78882 4.80426,5.78881 -1.22239,28.08219 -1.2224,28.0822 -9.69432,4.10558 -9.69432,4.10557 2.27071,27.71265 2.27071,27.71264 -18.23622,0 z m -11.94557,-4.10558 c 1.20182,0 4.02518,-4.15689 6.27417,-9.23754 l 4.08911,-9.23755 -1.78424,9.23755 -1.78424,9.23754 10.31882,0 10.31883,0 -2.49204,-6.49415 c -1.37065,-3.57178 -2.49205,-8.19056 -2.49205,-10.26394 l 0,-3.76979 -6.25997,0 -6.25997,0 -4.13879,-10.88585 c -2.27633,-5.98721 -3.43156,-12.91537 -2.56721,-15.39591 l 1.57161,-4.51007 2.99502,13.34313 2.99501,13.34312 5.83217,0 5.83213,0 0,-3.86328 c 0,-2.1248 -1.8475,-5.0051 -4.10557,-6.40066 l -4.10557,-2.53739 0.28862,-6.94246 0.28862,-6.94246 3.52846,8.21116 3.52845,8.21115 0.28862,-9.23755 0.28837,-9.23755 -12.31671,0 -12.31672,0 0,26.68625 c 0,14.67744 0.98328,26.68625 2.18507,26.68625 z m 11.09867,-58.32341 29.82477,-1.20745 0,-30.79183 0,-30.79182 -30.79179,0 -30.7918,0 -1.23771,26.25382 c -0.68074,14.4396 -0.24551,28.83928 0.96703,31.99928 l 2.20473,5.74546 29.82477,-1.20746 z m 17.50805,-19.68255 c -1.12903,0 -2.05278,-0.92375 -2.05278,-2.05279 0,-1.12903 0.92375,-2.05278 2.05278,-2.05278 1.12904,0 2.05279,0.92375 2.05279,2.05278 0,1.12904 -0.92375,2.05279 -2.05279,2.05279 z"
         id="path3103"
         inkscape:connector-curvature="0" />
    </g>
  </g>
</svg>
