<?xml version="1.0" encoding="UTF-8" standalone="no"?>
<!-- Created with Inkscape (http://www.inkscape.org/) -->

<svg
   xmlns:dc="http://purl.org/dc/elements/1.1/"
   xmlns:cc="http://creativecommons.org/ns#"
   xmlns:rdf="http://www.w3.org/1999/02/22-rdf-syntax-ns#"
   xmlns:svg="http://www.w3.org/2000/svg"
   xmlns="http://www.w3.org/2000/svg"
   xmlns:sodipodi="http://sodipodi.sourceforge.net/DTD/sodipodi-0.dtd"
   xmlns:inkscape="http://www.inkscape.org/namespaces/inkscape"
   width="64px"
   height="64px"
   id="svg3163"
   version="1.1"
   inkscape:version="0.48.2 r9819"
   sodipodi:docname="D6.svg">
  <defs
     id="defs3165" />
  <sodipodi:namedview
     id="base"
     pagecolor="#ffffff"
     bordercolor="#666666"
     borderopacity="1.0"
     inkscape:pageopacity="0.0"
     inkscape:pageshadow="2"
     inkscape:zoom="5.5"
     inkscape:cx="33.489375"
     inkscape:cy="31.436272"
     inkscape:current-layer="layer1"
     showgrid="true"
     inkscape:document-units="px"
     inkscape:grid-bbox="true"
     inkscape:window-width="1366"
     inkscape:window-height="705"
     inkscape:window-x="-4"
     inkscape:window-y="-4"
     inkscape:window-maximized="1" />
  <metadata
     id="metadata3168">
    <rdf:RDF>
      <cc:Work
         rdf:about="">
        <dc:format>image/svg+xml</dc:format>
        <dc:type
           rdf:resource="http://purl.org/dc/dcmitype/StillImage" />
        <dc:title></dc:title>
      </cc:Work>
    </rdf:RDF>
  </metadata>
  <g
     id="layer1"
     inkscape:label="Layer 1"
     inkscape:groupmode="layer">
    <g
       id="g3085"
       transform="matrix(0.48319088,0,0,0.48319088,2.951413,-134.15168)">
      <path
         style="fill:#e6e6e6;fill-opacity:1"
         d="m 55.181563,407.63738 -15.395898,2.54479 0,-16.7172 0,-16.71719 -4.463242,-2.75844 -4.463243,-2.75843 1.986619,-7.59685 1.986619,-7.59686 -5.734522,-4.75923 -5.734522,-4.75923 0,-27.41522 0,-27.41522 4.926688,-4.92669 4.926687,-4.92669 27.09678,0 27.09678,0 4.926687,4.92669 4.926687,4.92669 0,27.67563 0,27.67562 -4.105573,2.53739 -4.105572,2.53738 0,13.88492 0,13.88492 -4.120641,2.5467 -4.120644,2.5467 2.512935,10.01233 2.512931,10.01233 -7.629829,0.0452 c -4.196405,0.0249 -14.557984,1.19034 -23.025727,2.58997 z m -5.645163,-2.63516 5.645163,0 3.2438,-13.34312 3.243797,-13.34313 1.647673,11.29034 1.647673,11.29034 8.377692,0 8.377696,0 -2.492037,-6.49415 c -1.370621,-3.57179 -2.492038,-13.73309 -2.492038,-22.58067 l 0,-16.08653 -16.894472,0 -16.894473,0 7.173606,10.94832 7.173605,10.94832 -6.701424,4.9002 -6.701423,4.90021 0,8.78494 0,8.78493 5.645162,0 z m -0.718475,-24.63346 c 1.806452,0 3.284458,-1.84751 3.284458,-4.10558 0,-2.25806 -1.847508,-4.10557 -4.105572,-4.10557 l -4.105573,0 0,-6.15837 0,-6.15836 -4.105573,0 -4.105573,0 0,5.33725 c 0,2.93548 2.21701,7.55426 4.926688,10.26394 2.709678,2.70968 6.404693,4.92669 8.211145,4.92669 z m 34.74251,-3.07918 2.070793,-5.13197 -2.070793,-5.13197 -2.070793,-5.13197 0,10.26394 0,10.26394 2.070793,-5.13197 z m -22.279884,-26.50519 29.824773,-1.20745 0,-30.79183 0,-30.79183 -30.791795,0 -30.791796,0 -1.237717,26.25382 c -0.680745,14.43961 -0.245586,28.83928 0.96702,31.99928 l 2.204738,5.74547 29.824777,-1.20746 z m -19.4421,-19.68255 c -1.129032,0 -2.052786,-0.92376 -2.052786,-2.05279 0,-1.12903 0.923754,-2.05279 2.052786,-2.05279 1.129033,0 2.052787,0.92376 2.052787,2.05279 0,1.12903 -0.923754,2.05279 -2.052787,2.05279 z m 36.950155,0 c -1.129033,0 -2.052787,-0.92376 -2.052787,-2.05279 0,-1.12903 0.923754,-2.05279 2.052787,-2.05279 1.129032,0 2.052786,0.92376 2.052786,2.05279 0,1.12903 -0.923754,2.05279 -2.052786,2.05279 z m 113.929644,77.19412 -21.55426,1.24095 -0.45445,-3.29374 c -0.24995,-1.81155 -0.14086,-7.27417 0.24244,-12.13916 l 0.69688,-8.84541 -4.34801,-2.68722 -4.348,-2.68722 0,-15.93771 0,-15.93771 -4.10558,-2.53738 -4.10557,-2.53739 0,-27.67562 0,-27.67563 4.92669,-4.92669 4.92669,-4.92669 27.09678,0 27.09678,0 4.92668,4.92669 4.92669,4.92669 0,27.67563 0,27.67562 -4.10557,2.53739 -4.10558,2.53738 0,18.2328 0,18.2328 -4.26096,0 -4.26097,0 1.18179,11.29034 1.18179,11.29033 -21.55426,1.24095 z m -13.01217,-3.29374 7.8802,0 0,-7.96885 0,-7.96886 4.10558,-2.53738 4.10557,-2.53739 0,10.50624 0,10.50624 7.44673,0 7.44673,0 -1.03212,-25.65985 -1.03211,-25.65986 3.47671,14.36952 3.4767,14.36952 -0.65378,-14.36952 -0.65378,-14.36952 -23.60705,-1.23128 -23.60704,-1.23128 0,14.57441 0,14.5744 4.43178,0 4.43179,0 -2.33069,-13.34312 -2.33068,-13.34313 4.31781,11.04561 4.31781,11.04559 -4.03518,14.61426 -4.03519,14.61425 7.88021,0 z m 12.9528,-58.32341 29.82477,-1.20745 0,-30.79183 0,-30.79182 -30.79179,0 -30.7918,0 -1.23772,26.25382 c -0.68074,14.4396 -0.24559,28.83928 0.96702,31.99928 l 2.20474,5.74546 29.82478,-1.20746 z m -19.4421,-19.68255 c -1.12903,0 -2.05279,-0.92375 -2.05279,-2.05279 0,-1.12903 0.92376,-2.05278 2.05279,-2.05278 1.12903,0 2.05278,0.92375 2.05278,2.05278 0,1.12904 -0.92375,2.05279 -2.05278,2.05279 z m 36.95015,0 c -1.12903,0 -2.05278,-0.92375 -2.05278,-2.05279 0,-1.12903 0.92375,-2.05278 2.05278,-2.05278 1.12903,0 2.05279,0.92375 2.05279,2.05278 0,1.12904 -0.92376,2.05279 -2.05279,2.05279 z m 114.79834,81.26958 -20.68557,1.21082 -2.84672,-2.84672 -2.84672,-2.84673 2.42311,-9.65443 2.4231,-9.65444 -4.55065,0 -4.55065,0 0,-18.2328 0,-18.2328 -4.10557,-2.53738 -4.10557,-2.53739 0,-27.67562 0,-27.67563 4.92668,-4.92669 4.92669,-4.92669 27.09678,0 27.09678,0 4.92669,4.92669 4.92669,4.92669 0,27.67563 0,27.67562 -4.10558,2.53739 -4.10557,2.53738 0,15.93771 0,15.93771 -4.348,2.68722 -4.34801,2.68722 1.26883,10.8982 1.26882,10.89821 -20.68556,1.21083 z m -13.44739,-3.26362 7.44673,0 0,-10.50624 0,-10.50624 4.10557,2.53739 4.10557,2.53738 0,7.96886 0,7.96885 7.88021,0 7.88021,0 -4.03519,-14.61425 -4.03518,-14.61426 4.3178,-11.04559 4.31781,-11.04561 -2.33068,13.34313 -2.33068,13.34312 4.43179,0 4.43178,0 0,-14.5744 0,-14.57441 -23.60704,1.23128 -23.60705,1.23128 -0.65378,14.36952 -0.65379,14.36952 3.47671,-14.36952 3.47671,-14.36952 -1.03212,25.65986 -1.03211,25.65985 7.44673,0 z m 12.51932,-58.32341 29.82478,-1.20745 0,-30.79183 0,-30.79182 -30.7918,0 -30.79179,0 -1.23772,26.25382 c -0.68075,14.4396 -0.2456,28.83928 0.96702,31.99928 l 2.20474,5.74546 29.82477,-1.20746 z m -19.4421,-19.68255 c -1.12903,0 -2.05278,-0.92375 -2.05278,-2.05279 0,-1.12903 0.92375,-2.05278 2.05278,-2.05278 1.12904,0 2.05279,0.92375 2.05279,2.05278 0,1.12904 -0.92375,2.05279 -2.05279,2.05279 z m 36.95016,0 c -1.12903,0 -2.05279,-0.92375 -2.05279,-2.05279 0,-1.12903 0.92376,-2.05278 2.05279,-2.05278 1.12903,0 2.05279,0.92375 2.05279,2.05278 0,1.12904 -0.92376,2.05279 -2.05279,2.05279 z m 124.19357,81.62579 c -5.08064,-0.26715 -14.78006,-1.68002 -21.55425,-3.13967 l -12.31672,-2.65392 0,-8.80609 c 0,-4.84335 -1.38563,-10.2047 -3.07918,-11.91411 l -3.07918,-3.10802 0,-13.44296 0,-13.44296 -4.10557,-2.53738 -4.10558,-2.53739 0,-27.67562 0,-27.67563 4.92669,-4.92669 4.92669,-4.92669 27.09678,0 27.09678,0 4.92669,4.92669 4.92668,4.92669 0,27.41522 0,27.41522 -5.73454,4.75923 -5.7345,4.75923 1.98661,7.59686 1.98664,7.59685 -4.46325,2.75843 -4.46325,2.75844 0,16.18001 0,16.18001 -9.23754,-0.48575 z m -0.51319,-3.61983 5.64516,0 0,-8.78493 0,-8.78494 -6.70144,-4.90021 -6.70141,-4.9002 7.17359,-10.94832 7.17362,-10.94832 -16.89447,0 -16.89447,0 0,16.08653 c 0,8.84758 -1.1214,19.00888 -2.49204,22.58067 l -2.49205,6.49415 8.37771,0 8.37771,0 1.64765,-11.29034 1.64769,-11.29034 3.24377,13.34313 3.24381,13.34312 5.64517,0 z m -32.69153,-27.71264 2.07081,-5.13197 -2.07081,-5.13197 -2.07081,-5.13197 0,10.26394 0,10.26394 2.07081,-5.13197 z m 33.41,3.07918 c 1.80645,0 5.50147,-2.21701 8.21115,-4.92669 2.70968,-2.70968 4.92668,-7.32846 4.92668,-10.26394 l 0,-5.33725 -4.10557,0 -4.10557,0 0,6.15836 0,6.15837 -4.10557,0 c -2.25807,0 -4.10558,1.84751 -4.10558,4.10557 0,2.25807 1.47801,4.10558 3.28446,4.10558 z m -10.52857,-29.58437 29.82476,-1.20745 0,-30.79183 0,-30.79183 -30.79179,0 -30.7918,0 -1.2377,26.25382 c -0.68075,14.43961 -0.24552,28.83928 0.96702,31.99928 l 2.20474,5.74547 29.82477,-1.20746 z m -19.44211,-19.68255 c -1.12903,0 -2.05278,-0.92376 -2.05278,-2.05279 0,-1.12903 0.92375,-2.05279 2.05278,-2.05279 1.12903,0 2.05279,0.92376 2.05279,2.05279 0,1.12903 -0.92376,2.05279 -2.05279,2.05279 z m 36.95016,0 c -1.12904,0 -2.05279,-0.92376 -2.05279,-2.05279 0,-1.12903 0.92375,-2.05279 2.05279,-2.05279 1.12903,0 2.05278,0.92376 2.05278,2.05279 0,1.12903 -0.92375,2.05279 -2.05278,2.05279 z m 114.79834,77.164 -20.68556,1.21082 -2.84672,-2.84672 -2.84673,-2.84673 2.42311,-9.65443 2.42311,-9.65444 -4.55066,0 -4.55065,0 0,-18.2328 0,-18.2328 -4.10558,-2.53738 -4.10557,-2.53739 0,-27.67562 0,-27.67563 4.92669,-4.92669 4.92669,-4.92669 27.09678,0 27.09678,0 4.92668,4.92669 4.92669,4.92669 0,27.67563 0,27.67562 -4.10557,2.53739 -4.10558,2.53738 0,15.93771 0,15.93771 -4.348,2.68722 -4.34801,2.68722 1.26883,10.8982 1.26883,10.89821 -20.68556,1.21083 z m -13.4474,-3.26362 7.44673,0 0,-10.50624 0,-10.50624 4.10558,2.53739 4.10557,2.53738 0,7.96886 0,7.96885 7.88019,0 7.88024,0 -4.0352,-14.61425 -4.03521,-14.61426 4.31783,-11.04559 4.31779,-11.04561 -2.33065,13.34313 -2.33069,13.34312 4.43176,0 4.4318,0 0,-14.5744 0,-14.57441 -23.60704,1.23128 -23.60704,1.23128 -0.65378,14.36952 -0.65381,14.36952 3.47672,-14.36952 3.47673,-14.36952 -1.03215,25.65986 -1.0321,25.65985 7.44673,0 z m 12.51933,-58.32341 29.82477,-1.20745 0,-30.79183 0,-30.79182 -30.79179,0 -30.7918,0 -1.23771,26.25382 c -0.68074,14.4396 -0.24551,28.83928 0.96703,31.99928 l 2.20473,5.74546 29.82477,-1.20746 z m -19.4421,-19.68255 c -1.12903,0 -2.05279,-0.92375 -2.05279,-2.05279 0,-1.12903 0.92376,-2.05278 2.05279,-2.05278 1.12903,0 2.05278,0.92375 2.05278,2.05278 0,1.12904 -0.92375,2.05279 -2.05278,2.05279 z m 36.95015,0 c -1.12903,0 -2.05278,-0.92375 -2.05278,-2.05279 0,-1.12903 0.92375,-2.05278 2.05278,-2.05278 1.12903,0 2.05279,0.92375 2.05279,2.05278 0,1.12904 -0.92376,2.05279 -2.05279,2.05279 z m 113.92965,81.2997 -21.55426,1.24095 -0.45445,-3.29374 c -0.25003,-1.81155 -0.14082,-7.27417 0.24264,-12.13916 l 0.69668,-8.84541 -4.34801,-2.68722 -4.34801,-2.68722 0,-15.93771 0,-15.93771 -4.10557,-2.53738 -4.10557,-2.53739 0,-27.67562 0,-27.67563 4.92668,-4.92669 4.92669,-4.92669 27.09678,0 27.09678,0 4.92669,4.92669 4.92669,4.92669 0,27.67563 0,27.67562 -4.10558,2.53739 -4.10557,2.53738 0,18.2328 0,18.2328 -4.26097,0 -4.26097,0 1.18179,11.29034 1.18179,11.29033 -21.55425,1.24095 z m -13.01217,-3.29374 7.8802,0 0,-7.96885 0,-7.96886 4.10557,-2.53738 4.10557,-2.53739 0,10.50624 0,10.50624 7.44673,0 7.44673,0 -1.0321,-25.65985 -1.03214,-25.65986 3.47672,14.36952 3.47673,14.36952 -0.65382,-14.36952 -0.65377,-14.36952 -23.60704,-1.23128 -23.60704,-1.23128 0,14.57441 0,14.5744 4.4318,0 4.43176,0 -2.33069,-13.34312 -2.33066,-13.34313 4.31779,11.04561 4.31783,11.04559 -4.0352,14.61426 -4.0352,14.61425 7.88023,0 z m 12.9528,-58.32341 29.82477,-1.20745 0,-30.79183 0,-30.79182 -30.7918,0 -30.79179,0 -1.23771,26.25382 c -0.68075,14.4396 -0.24551,28.83928 0.96703,31.99928 l 2.20473,5.74546 29.82477,-1.20746 z m -19.44211,-19.68255 c -1.12903,0 -2.05278,-0.92375 -2.05278,-2.05279 0,-1.12903 0.92375,-2.05278 2.05278,-2.05278 1.12904,0 2.05279,0.92375 2.05279,2.05278 0,1.12904 -0.92375,2.05279 -2.05279,2.05279 z m 36.95016,0 c -1.12903,0 -2.05279,-0.92375 -2.05279,-2.05279 0,-1.12903 0.92376,-2.05278 2.05279,-2.05278 1.12903,0 2.05279,0.92375 2.05279,2.05278 0,1.12904 -0.92376,2.05279 -2.05279,2.05279 z"
         id="path3091"
         inkscape:connector-curvature="0" />
      <path
         style="fill:#8c8c8c;fill-opacity:1"
         d="m 55.181563,407.63738 -15.395898,2.54479 0,-16.7172 0,-16.71719 -4.463242,-2.75844 -4.463243,-2.75843 1.986619,-7.59685 1.986619,-7.59686 -5.734522,-4.75923 -5.734522,-4.75923 0,-27.41522 0,-27.41522 4.926688,-4.92669 4.926687,-4.92669 27.09678,0 27.09678,0 4.926687,4.92669 4.926687,4.92669 0,27.67563 0,27.67562 -4.105573,2.53739 -4.105572,2.53738 0,13.88492 0,13.88492 -4.120641,2.5467 -4.120644,2.5467 2.512935,10.01233 2.512931,10.01233 -7.629829,0.0452 c -4.196405,0.0249 -14.557984,1.19034 -23.025727,2.58997 z m -5.645163,-2.63516 5.645163,0 3.2438,-13.34312 3.243797,-13.34313 1.647673,11.29034 1.647673,11.29034 8.377692,0 8.377696,0 -2.492037,-6.49415 c -1.370621,-3.57179 -2.492038,-13.73309 -2.492038,-22.58067 l 0,-16.08653 -16.894472,0 -16.894473,0 7.173606,10.94832 7.173605,10.94832 -6.701424,4.9002 -6.701423,4.90021 0,8.78494 0,8.78493 5.645162,0 z m -0.718475,-24.63346 c 1.806452,0 3.284458,-1.84751 3.284458,-4.10558 0,-2.25806 -1.847508,-4.10557 -4.105572,-4.10557 l -4.105573,0 0,-6.15837 0,-6.15836 -4.105573,0 -4.105573,0 0,5.33725 c 0,2.93548 2.21701,7.55426 4.926688,10.26394 2.709678,2.70968 6.404693,4.92669 8.211145,4.92669 z m 34.74251,-3.07918 2.070793,-5.13197 -2.070793,-5.13197 -2.070793,-5.13197 0,10.26394 0,10.26394 2.070793,-5.13197 z m -22.279884,-26.50519 29.824773,-1.20745 0,-30.79183 0,-30.79183 -30.791795,0 -30.791796,0 -1.237717,26.25382 c -0.680745,14.43961 -0.245586,28.83928 0.96702,31.99928 l 2.204738,5.74547 29.824777,-1.20746 z m -19.4421,-19.68255 c -1.129032,0 -2.052786,-0.92376 -2.052786,-2.05279 0,-1.12903 0.923754,-2.05279 2.052786,-2.05279 1.129033,0 2.052787,0.92376 2.052787,2.05279 0,1.12903 -0.923754,2.05279 -2.052787,2.05279 z m 36.950155,0 c -1.129033,0 -2.052787,-0.92376 -2.052787,-2.05279 0,-1.12903 0.923754,-2.05279 2.052787,-2.05279 1.129032,0 2.052786,0.92376 2.052786,2.05279 0,1.12903 -0.923754,2.05279 -2.052786,2.05279 z m 113.929644,77.19412 -21.55426,1.24095 -0.45445,-3.29374 c -0.24995,-1.81155 -0.14086,-7.27417 0.24244,-12.13916 l 0.69688,-8.84541 -4.34801,-2.68722 -4.348,-2.68722 0,-15.93771 0,-15.93771 -4.10558,-2.53738 -4.10557,-2.53739 0,-27.67562 0,-27.67563 4.92669,-4.92669 4.92669,-4.92669 27.09678,0 27.09678,0 4.92668,4.92669 4.92669,4.92669 0,27.67563 0,27.67562 -4.10557,2.53739 -4.10558,2.53738 0,18.2328 0,18.2328 -4.26096,0 -4.26097,0 1.18179,11.29034 1.18179,11.29033 -21.55426,1.24095 z m -13.01217,-3.29374 7.8802,0 0,-7.96885 0,-7.96886 4.10558,-2.53738 4.10557,-2.53739 0,10.50624 0,10.50624 7.44673,0 7.44673,0 -1.03212,-25.65985 -1.03211,-25.65986 3.47671,14.36952 3.4767,14.36952 -0.65378,-14.36952 -0.65378,-14.36952 -23.60705,-1.23128 -23.60704,-1.23128 0,14.57441 0,14.5744 4.43178,0 4.43179,0 -2.33069,-13.34312 -2.33068,-13.34313 4.31781,11.04561 4.31781,11.04559 -4.03518,14.61426 -4.03519,14.61425 7.88021,0 z m 12.9528,-58.32341 29.82477,-1.20745 0,-30.79183 0,-30.79182 -30.79179,0 -30.7918,0 -1.23772,26.25382 c -0.68074,14.4396 -0.24559,28.83928 0.96702,31.99928 l 2.20474,5.74546 29.82478,-1.20746 z m -19.4421,-19.68255 c -1.12903,0 -2.05279,-0.92375 -2.05279,-2.05279 0,-1.12903 0.92376,-2.05278 2.05279,-2.05278 1.12903,0 2.05278,0.92375 2.05278,2.05278 0,1.12904 -0.92375,2.05279 -2.05278,2.05279 z m 36.95015,0 c -1.12903,0 -2.05278,-0.92375 -2.05278,-2.05279 0,-1.12903 0.92375,-2.05278 2.05278,-2.05278 1.12903,0 2.05279,0.92375 2.05279,2.05278 0,1.12904 -0.92376,2.05279 -2.05279,2.05279 z m 114.79834,81.26958 -20.68557,1.21082 -2.84672,-2.84672 -2.84672,-2.84673 2.42311,-9.65443 2.4231,-9.65444 -4.55065,0 -4.55065,0 0,-18.2328 0,-18.2328 -4.10557,-2.53738 -4.10557,-2.53739 0,-27.67562 0,-27.67563 4.92668,-4.92669 4.92669,-4.92669 27.09678,0 27.09678,0 4.92669,4.92669 4.92669,4.92669 0,27.67563 0,27.67562 -4.10558,2.53739 -4.10557,2.53738 0,15.93771 0,15.93771 -4.348,2.68722 -4.34801,2.68722 1.26883,10.8982 1.26882,10.89821 -20.68556,1.21083 z m -13.44739,-3.26362 7.44673,0 0,-10.50624 0,-10.50624 4.10557,2.53739 4.10557,2.53738 0,7.96886 0,7.96885 7.88021,0 7.88021,0 -4.03519,-14.61425 -4.03518,-14.61426 4.3178,-11.04559 4.31781,-11.04561 -2.33068,13.34313 -2.33068,13.34312 4.43179,0 4.43178,0 0,-14.5744 0,-14.57441 -23.60704,1.23128 -23.60705,1.23128 -0.65378,14.36952 -0.65379,14.36952 3.47671,-14.36952 3.47671,-14.36952 -1.03212,25.65986 -1.03211,25.65985 7.44673,0 z m 12.51932,-58.32341 29.82478,-1.20745 0,-30.79183 0,-30.79182 -30.7918,0 -30.79179,0 -1.23772,26.25382 c -0.68075,14.4396 -0.2456,28.83928 0.96702,31.99928 l 2.20474,5.74546 29.82477,-1.20746 z m -19.4421,-19.68255 c -1.12903,0 -2.05278,-0.92375 -2.05278,-2.05279 0,-1.12903 0.92375,-2.05278 2.05278,-2.05278 1.12904,0 2.05279,0.92375 2.05279,2.05278 0,1.12904 -0.92375,2.05279 -2.05279,2.05279 z m 36.95016,0 c -1.12903,0 -2.05279,-0.92375 -2.05279,-2.05279 0,-1.12903 0.92376,-2.05278 2.05279,-2.05278 1.12903,0 2.05279,0.92375 2.05279,2.05278 0,1.12904 -0.92376,2.05279 -2.05279,2.05279 z m 124.19357,81.62579 c -5.08064,-0.26715 -14.78006,-1.68002 -21.55425,-3.13967 l -12.31672,-2.65392 0,-8.80609 c 0,-4.84335 -1.38563,-10.2047 -3.07918,-11.91411 l -3.07918,-3.10802 0,-13.44296 0,-13.44296 -4.10557,-2.53738 -4.10558,-2.53739 0,-27.67562 0,-27.67563 4.92669,-4.92669 4.92669,-4.92669 27.09678,0 27.09678,0 4.92669,4.92669 4.92668,4.92669 0,27.41522 0,27.41522 -5.73454,4.75923 -5.7345,4.75923 1.98661,7.59686 1.98664,7.59685 -4.46325,2.75843 -4.46325,2.75844 0,16.18001 0,16.18001 -9.23754,-0.48575 z m -0.51319,-3.61983 5.64516,0 0,-8.78493 0,-8.78494 -6.70144,-4.90021 -6.70141,-4.9002 7.17359,-10.94832 7.17362,-10.94832 -16.89447,0 -16.89447,0 0,16.08653 c 0,8.84758 -1.1214,19.00888 -2.49204,22.58067 l -2.49205,6.49415 8.37771,0 8.37771,0 1.64765,-11.29034 1.64769,-11.29034 3.24377,13.34313 3.24381,13.34312 5.64517,0 z m -32.69153,-27.71264 2.07081,-5.13197 -2.07081,-5.13197 -2.07081,-5.13197 0,10.26394 0,10.26394 2.07081,-5.13197 z m 33.41,3.07918 c 1.80645,0 5.50147,-2.21701 8.21115,-4.92669 2.70968,-2.70968 4.92668,-7.32846 4.92668,-10.26394 l 0,-5.33725 -4.10557,0 -4.10557,0 0,6.15836 0,6.15837 -4.10557,0 c -2.25807,0 -4.10558,1.84751 -4.10558,4.10557 0,2.25807 1.47801,4.10558 3.28446,4.10558 z m -10.52857,-29.58437 29.82476,-1.20745 0,-30.79183 0,-30.79183 -30.79179,0 -30.7918,0 -1.2377,26.25382 c -0.68075,14.43961 -0.24552,28.83928 0.96702,31.99928 l 2.20474,5.74547 29.82477,-1.20746 z m -19.44211,-19.68255 c -1.12903,0 -2.05278,-0.92376 -2.05278,-2.05279 0,-1.12903 0.92375,-2.05279 2.05278,-2.05279 1.12903,0 2.05279,0.92376 2.05279,2.05279 0,1.12903 -0.92376,2.05279 -2.05279,2.05279 z m 36.95016,0 c -1.12904,0 -2.05279,-0.92376 -2.05279,-2.05279 0,-1.12903 0.92375,-2.05279 2.05279,-2.05279 1.12903,0 2.05278,0.92376 2.05278,2.05279 0,1.12903 -0.92375,2.05279 -2.05278,2.05279 z m 114.79834,77.164 -20.68556,1.21082 -2.84672,-2.84672 -2.84673,-2.84673 2.42311,-9.65443 2.42311,-9.65444 -4.55066,0 -4.55065,0 0,-18.2328 0,-18.2328 -4.10558,-2.53738 -4.10557,-2.53739 0,-27.67562 0,-27.67563 4.92669,-4.92669 4.92669,-4.92669 27.09678,0 27.09678,0 4.92668,4.92669 4.92669,4.92669 0,27.67563 0,27.67562 -4.10557,2.53739 -4.10558,2.53738 0,15.93771 0,15.93771 -4.348,2.68722 -4.34801,2.68722 1.26883,10.8982 1.26883,10.89821 -20.68556,1.21083 z m -13.4474,-3.26362 7.44673,0 0,-10.50624 0,-10.50624 4.10558,2.53739 4.10557,2.53738 0,7.96886 0,7.96885 7.88019,0 7.88024,0 -4.0352,-14.61425 -4.03521,-14.61426 4.31783,-11.04559 4.31779,-11.04561 -2.33065,13.34313 -2.33069,13.34312 4.43176,0 4.4318,0 0,-14.5744 0,-14.57441 -23.60704,1.23128 -23.60704,1.23128 -0.65378,14.36952 -0.65381,14.36952 3.47672,-14.36952 3.47673,-14.36952 -1.03215,25.65986 -1.0321,25.65985 7.44673,0 z m 12.51933,-58.32341 29.82477,-1.20745 0,-30.79183 0,-30.79182 -30.79179,0 -30.7918,0 -1.23771,26.25382 c -0.68074,14.4396 -0.24551,28.83928 0.96703,31.99928 l 2.20473,5.74546 29.82477,-1.20746 z m -19.4421,-19.68255 c -1.12903,0 -2.05279,-0.92375 -2.05279,-2.05279 0,-1.12903 0.92376,-2.05278 2.05279,-2.05278 1.12903,0 2.05278,0.92375 2.05278,2.05278 0,1.12904 -0.92375,2.05279 -2.05278,2.05279 z m 36.95015,0 c -1.12903,0 -2.05278,-0.92375 -2.05278,-2.05279 0,-1.12903 0.92375,-2.05278 2.05278,-2.05278 1.12903,0 2.05279,0.92375 2.05279,2.05278 0,1.12904 -0.92376,2.05279 -2.05279,2.05279 z m 113.92965,81.2997 -21.55426,1.24095 -0.45445,-3.29374 c -0.25003,-1.81155 -0.14082,-7.27417 0.24264,-12.13916 l 0.69668,-8.84541 -4.34801,-2.68722 -4.34801,-2.68722 0,-15.93771 0,-15.93771 -4.10557,-2.53738 -4.10557,-2.53739 0,-27.67562 0,-27.67563 4.92668,-4.92669 4.92669,-4.92669 27.09678,0 27.09678,0 4.92669,4.92669 4.92669,4.92669 0,27.67563 0,27.67562 -4.10558,2.53739 -4.10557,2.53738 0,18.2328 0,18.2328 -4.26097,0 -4.26097,0 1.18179,11.29034 1.18179,11.29033 -21.55425,1.24095 z m -13.01217,-3.29374 7.8802,0 0,-7.96885 0,-7.96886 4.10557,-2.53738 4.10557,-2.53739 0,10.50624 0,10.50624 7.44673,0 7.44673,0 -1.0321,-25.65985 -1.03214,-25.65986 3.47672,14.36952 3.47673,14.36952 -0.65382,-14.36952 -0.65377,-14.36952 -23.60704,-1.23128 -23.60704,-1.23128 0,14.57441 0,14.5744 4.4318,0 4.43176,0 -2.33069,-13.34312 -2.33066,-13.34313 4.31779,11.04561 4.31783,11.04559 -4.0352,14.61426 -4.0352,14.61425 7.88023,0 z m 12.9528,-58.32341 29.82477,-1.20745 0,-30.79183 0,-30.79182 -30.7918,0 -30.79179,0 -1.23771,26.25382 c -0.68075,14.4396 -0.24551,28.83928 0.96703,31.99928 l 2.20473,5.74546 29.82477,-1.20746 z m -19.44211,-19.68255 c -1.12903,0 -2.05278,-0.92375 -2.05278,-2.05279 0,-1.12903 0.92375,-2.05278 2.05278,-2.05278 1.12904,0 2.05279,0.92375 2.05279,2.05278 0,1.12904 -0.92375,2.05279 -2.05279,2.05279 z m 36.95016,0 c -1.12903,0 -2.05279,-0.92375 -2.05279,-2.05279 0,-1.12903 0.92376,-2.05278 2.05279,-2.05278 1.12903,0 2.05279,0.92375 2.05279,2.05278 0,1.12904 -0.92376,2.05279 -2.05279,2.05279 z"
         id="path3089"
         inkscape:connector-curvature="0" />
      <path
         style="fill:#333333;fill-opacity:1"
         d="m 55.181563,407.63738 -15.395898,2.54479 0,-16.7172 0,-16.71719 -4.463242,-2.75844 -4.463243,-2.75843 1.986619,-7.59685 1.986619,-7.59686 -5.734522,-4.75923 -5.734522,-4.75923 0,-27.41522 0,-27.41522 4.926688,-4.92669 4.926687,-4.92669 27.09678,0 27.09678,0 4.926687,4.92669 4.926687,4.92669 0,27.67563 0,27.67562 -4.105573,2.53739 -4.105572,2.53738 0,13.88492 0,13.88492 -4.120641,2.5467 -4.120644,2.5467 2.512935,10.01233 2.512931,10.01233 -7.629829,0.0452 c -4.196405,0.0249 -14.557984,1.19034 -23.025727,2.58997 z m -5.645163,-2.63516 5.645163,0 3.2438,-13.34312 3.243797,-13.34313 1.647673,11.29034 1.647673,11.29034 8.377692,0 8.377696,0 -2.492037,-6.49415 c -1.370621,-3.57179 -2.492038,-13.73309 -2.492038,-22.58067 l 0,-16.08653 -16.894472,0 -16.894473,0 7.173606,10.94832 7.173605,10.94832 -6.701424,4.9002 -6.701423,4.90021 0,8.78494 0,8.78493 5.645162,0 z m -0.718475,-24.63346 c 1.806452,0 3.284458,-1.84751 3.284458,-4.10558 0,-2.25806 -1.847508,-4.10557 -4.105572,-4.10557 l -4.105573,0 0,-6.15837 0,-6.15836 -4.105573,0 -4.105573,0 0,5.33725 c 0,2.93548 2.21701,7.55426 4.926688,10.26394 2.709678,2.70968 6.404693,4.92669 8.211145,4.92669 z m 34.74251,-3.07918 2.070793,-5.13197 -2.070793,-5.13197 -2.070793,-5.13197 0,10.26394 0,10.26394 2.070793,-5.13197 z m -22.279884,-26.50519 29.824773,-1.20745 0,-30.79183 0,-30.79183 -30.791795,0 -30.791796,0 -1.237717,26.25382 c -0.680745,14.43961 -0.245586,28.83928 0.96702,31.99928 l 2.204738,5.74547 29.824777,-1.20746 z m -19.4421,-19.68255 c -1.129032,0 -2.052786,-0.92376 -2.052786,-2.05279 0,-1.12903 0.923754,-2.05279 2.052786,-2.05279 1.129033,0 2.052787,0.92376 2.052787,2.05279 0,1.12903 -0.923754,2.05279 -2.052787,2.05279 z m 36.950155,0 c -1.129033,0 -2.052787,-0.92376 -2.052787,-2.05279 0,-1.12903 0.923754,-2.05279 2.052787,-2.05279 1.129032,0 2.052786,0.92376 2.052786,2.05279 0,1.12903 -0.923754,2.05279 -2.052786,2.05279 z m 113.929644,77.19412 -21.55426,1.24095 -0.45445,-3.29374 c -0.24995,-1.81155 -0.14086,-7.27417 0.24244,-12.13916 l 0.69688,-8.84541 -4.34801,-2.68722 -4.348,-2.68722 0,-15.93771 0,-15.93771 -4.10558,-2.53738 -4.10557,-2.53739 0,-27.67562 0,-27.67563 4.92669,-4.92669 4.92669,-4.92669 27.09678,0 27.09678,0 4.92668,4.92669 4.92669,4.92669 0,27.67563 0,27.67562 -4.10557,2.53739 -4.10558,2.53738 0,18.2328 0,18.2328 -4.26096,0 -4.26097,0 1.18179,11.29034 1.18179,11.29033 -21.55426,1.24095 z m -13.01217,-3.29374 7.8802,0 0,-7.96885 0,-7.96886 4.10558,-2.53738 4.10557,-2.53739 0,10.50624 0,10.50624 7.44673,0 7.44673,0 -1.03212,-25.65985 -1.03211,-25.65986 3.47671,14.36952 3.4767,14.36952 -0.65378,-14.36952 -0.65378,-14.36952 -23.60705,-1.23128 -23.60704,-1.23128 0,14.57441 0,14.5744 4.43178,0 4.43179,0 -2.33069,-13.34312 -2.33068,-13.34313 4.31781,11.04561 4.31781,11.04559 -4.03518,14.61426 -4.03519,14.61425 7.88021,0 z m 12.9528,-58.32341 29.82477,-1.20745 0,-30.79183 0,-30.79182 -30.79179,0 -30.7918,0 -1.23772,26.25382 c -0.68074,14.4396 -0.24559,28.83928 0.96702,31.99928 l 2.20474,5.74546 29.82478,-1.20746 z m -19.4421,-19.68255 c -1.12903,0 -2.05279,-0.92375 -2.05279,-2.05279 0,-1.12903 0.92376,-2.05278 2.05279,-2.05278 1.12903,0 2.05278,0.92375 2.05278,2.05278 0,1.12904 -0.92375,2.05279 -2.05278,2.05279 z m 36.95015,0 c -1.12903,0 -2.05278,-0.92375 -2.05278,-2.05279 0,-1.12903 0.92375,-2.05278 2.05278,-2.05278 1.12903,0 2.05279,0.92375 2.05279,2.05278 0,1.12904 -0.92376,2.05279 -2.05279,2.05279 z m 114.79834,81.26958 -20.68557,1.21082 -2.84672,-2.84672 -2.84672,-2.84673 2.42311,-9.65443 2.4231,-9.65444 -4.55065,0 -4.55065,0 0,-18.2328 0,-18.2328 -4.10557,-2.53738 -4.10557,-2.53739 0,-27.67562 0,-27.67563 4.92668,-4.92669 4.92669,-4.92669 27.09678,0 27.09678,0 4.92669,4.92669 4.92669,4.92669 0,27.67563 0,27.67562 -4.10558,2.53739 -4.10557,2.53738 0,15.93771 0,15.93771 -4.348,2.68722 -4.34801,2.68722 1.26883,10.8982 1.26882,10.89821 -20.68556,1.21083 z m -13.44739,-3.26362 7.44673,0 0,-10.50624 0,-10.50624 4.10557,2.53739 4.10557,2.53738 0,7.96886 0,7.96885 7.88021,0 7.88021,0 -4.03519,-14.61425 -4.03518,-14.61426 4.3178,-11.04559 4.31781,-11.04561 -2.33068,13.34313 -2.33068,13.34312 4.43179,0 4.43178,0 0,-14.5744 0,-14.57441 -23.60704,1.23128 -23.60705,1.23128 -0.65378,14.36952 -0.65379,14.36952 3.47671,-14.36952 3.47671,-14.36952 -1.03212,25.65986 -1.03211,25.65985 7.44673,0 z m 12.51932,-58.32341 29.82478,-1.20745 0,-30.79183 0,-30.79182 -30.7918,0 -30.79179,0 -1.23772,26.25382 c -0.68075,14.4396 -0.2456,28.83928 0.96702,31.99928 l 2.20474,5.74546 29.82477,-1.20746 z m -19.4421,-19.68255 c -1.12903,0 -2.05278,-0.92375 -2.05278,-2.05279 0,-1.12903 0.92375,-2.05278 2.05278,-2.05278 1.12904,0 2.05279,0.92375 2.05279,2.05278 0,1.12904 -0.92375,2.05279 -2.05279,2.05279 z m 36.95016,0 c -1.12903,0 -2.05279,-0.92375 -2.05279,-2.05279 0,-1.12903 0.92376,-2.05278 2.05279,-2.05278 1.12903,0 2.05279,0.92375 2.05279,2.05278 0,1.12904 -0.92376,2.05279 -2.05279,2.05279 z m 124.19357,81.62579 c -5.08064,-0.26715 -14.78006,-1.68002 -21.55425,-3.13967 l -12.31672,-2.65392 0,-8.80609 c 0,-4.84335 -1.38563,-10.2047 -3.07918,-11.91411 l -3.07918,-3.10802 0,-13.44296 0,-13.44296 -4.10557,-2.53738 -4.10558,-2.53739 0,-27.67562 0,-27.67563 4.92669,-4.92669 4.92669,-4.92669 27.09678,0 27.09678,0 4.92669,4.92669 4.92668,4.92669 0,27.41522 0,27.41522 -5.73454,4.75923 -5.7345,4.75923 1.98661,7.59686 1.98664,7.59685 -4.46325,2.75843 -4.46325,2.75844 0,16.18001 0,16.18001 -9.23754,-0.48575 z m -0.51319,-3.61983 5.64516,0 0,-8.78493 0,-8.78494 -6.70144,-4.90021 -6.70141,-4.9002 7.17359,-10.94832 7.17362,-10.94832 -16.89447,0 -16.89447,0 0,16.08653 c 0,8.84758 -1.1214,19.00888 -2.49204,22.58067 l -2.49205,6.49415 8.37771,0 8.37771,0 1.64765,-11.29034 1.64769,-11.29034 3.24377,13.34313 3.24381,13.34312 5.64517,0 z m -32.69153,-27.71264 2.07081,-5.13197 -2.07081,-5.13197 -2.07081,-5.13197 0,10.26394 0,10.26394 2.07081,-5.13197 z m 33.41,3.07918 c 1.80645,0 5.50147,-2.21701 8.21115,-4.92669 2.70968,-2.70968 4.92668,-7.32846 4.92668,-10.26394 l 0,-5.33725 -4.10557,0 -4.10557,0 0,6.15836 0,6.15837 -4.10557,0 c -2.25807,0 -4.10558,1.84751 -4.10558,4.10557 0,2.25807 1.47801,4.10558 3.28446,4.10558 z m -10.52857,-29.58437 29.82476,-1.20745 0,-30.79183 0,-30.79183 -30.79179,0 -30.7918,0 -1.2377,26.25382 c -0.68075,14.43961 -0.24552,28.83928 0.96702,31.99928 l 2.20474,5.74547 29.82477,-1.20746 z m -19.44211,-19.68255 c -1.12903,0 -2.05278,-0.92376 -2.05278,-2.05279 0,-1.12903 0.92375,-2.05279 2.05278,-2.05279 1.12903,0 2.05279,0.92376 2.05279,2.05279 0,1.12903 -0.92376,2.05279 -2.05279,2.05279 z m 36.95016,0 c -1.12904,0 -2.05279,-0.92376 -2.05279,-2.05279 0,-1.12903 0.92375,-2.05279 2.05279,-2.05279 1.12903,0 2.05278,0.92376 2.05278,2.05279 0,1.12903 -0.92375,2.05279 -2.05278,2.05279 z m 114.79834,77.164 -20.68556,1.21082 -2.84672,-2.84672 -2.84673,-2.84673 2.42311,-9.65443 2.42311,-9.65444 -4.55066,0 -4.55065,0 0,-18.2328 0,-18.2328 -4.10558,-2.53738 -4.10557,-2.53739 0,-27.67562 0,-27.67563 4.92669,-4.92669 4.92669,-4.92669 27.09678,0 27.09678,0 4.92668,4.92669 4.92669,4.92669 0,27.67563 0,27.67562 -4.10557,2.53739 -4.10558,2.53738 0,15.93771 0,15.93771 -4.348,2.68722 -4.34801,2.68722 1.26883,10.8982 1.26883,10.89821 -20.68556,1.21083 z m -13.4474,-3.26362 7.44673,0 0,-10.50624 0,-10.50624 4.10558,2.53739 4.10557,2.53738 0,7.96886 0,7.96885 7.88019,0 7.88024,0 -4.0352,-14.61425 -4.03521,-14.61426 4.31783,-11.04559 4.31779,-11.04561 -2.33065,13.34313 -2.33069,13.34312 4.43176,0 4.4318,0 0,-14.5744 0,-14.57441 -23.60704,1.23128 -23.60704,1.23128 -0.65378,14.36952 -0.65381,14.36952 3.47672,-14.36952 3.47673,-14.36952 -1.03215,25.65986 -1.0321,25.65985 7.44673,0 z m 12.51933,-58.32341 29.82477,-1.20745 0,-30.79183 0,-30.79182 -30.79179,0 -30.7918,0 -1.23771,26.25382 c -0.68074,14.4396 -0.24551,28.83928 0.96703,31.99928 l 2.20473,5.74546 29.82477,-1.20746 z m -19.4421,-19.68255 c -1.12903,0 -2.05279,-0.92375 -2.05279,-2.05279 0,-1.12903 0.92376,-2.05278 2.05279,-2.05278 1.12903,0 2.05278,0.92375 2.05278,2.05278 0,1.12904 -0.92375,2.05279 -2.05278,2.05279 z m 36.95015,0 c -1.12903,0 -2.05278,-0.92375 -2.05278,-2.05279 0,-1.12903 0.92375,-2.05278 2.05278,-2.05278 1.12903,0 2.05279,0.92375 2.05279,2.05278 0,1.12904 -0.92376,2.05279 -2.05279,2.05279 z m 113.92965,81.2997 -21.55426,1.24095 -0.45445,-3.29374 c -0.25003,-1.81155 -0.14082,-7.27417 0.24264,-12.13916 l 0.69668,-8.84541 -4.34801,-2.68722 -4.34801,-2.68722 0,-15.93771 0,-15.93771 -4.10557,-2.53738 -4.10557,-2.53739 0,-27.67562 0,-27.67563 4.92668,-4.92669 4.92669,-4.92669 27.09678,0 27.09678,0 4.92669,4.92669 4.92669,4.92669 0,27.67563 0,27.67562 -4.10558,2.53739 -4.10557,2.53738 0,18.2328 0,18.2328 -4.26097,0 -4.26097,0 1.18179,11.29034 1.18179,11.29033 -21.55425,1.24095 z m -13.01217,-3.29374 7.8802,0 0,-7.96885 0,-7.96886 4.10557,-2.53738 4.10557,-2.53739 0,10.50624 0,10.50624 7.44673,0 7.44673,0 -1.0321,-25.65985 -1.03214,-25.65986 3.47672,14.36952 3.47673,14.36952 -0.65382,-14.36952 -0.65377,-14.36952 -23.60704,-1.23128 -23.60704,-1.23128 0,14.57441 0,14.5744 4.4318,0 4.43176,0 -2.33069,-13.34312 -2.33066,-13.34313 4.31779,11.04561 4.31783,11.04559 -4.0352,14.61426 -4.0352,14.61425 7.88023,0 z m 12.9528,-58.32341 29.82477,-1.20745 0,-30.79183 0,-30.79182 -30.7918,0 -30.79179,0 -1.23771,26.25382 c -0.68075,14.4396 -0.24551,28.83928 0.96703,31.99928 l 2.20473,5.74546 29.82477,-1.20746 z m -19.44211,-19.68255 c -1.12903,0 -2.05278,-0.92375 -2.05278,-2.05279 0,-1.12903 0.92375,-2.05278 2.05278,-2.05278 1.12904,0 2.05279,0.92375 2.05279,2.05278 0,1.12904 -0.92375,2.05279 -2.05279,2.05279 z m 36.95016,0 c -1.12903,0 -2.05279,-0.92375 -2.05279,-2.05279 0,-1.12903 0.92376,-2.05278 2.05279,-2.05278 1.12903,0 2.05279,0.92375 2.05279,2.05278 0,1.12904 -0.92376,2.05279 -2.05279,2.05279 z"
         id="path3087"
         inkscape:connector-curvature="0" />
    </g>
  </g>
</svg>
